<?xml version="1.0" encoding="UTF-8"?>
<svg version="1.1" xmlns="http://www.w3.org/2000/svg" width="1080" height="1080">
<path d="M0 0 C356.4 0 712.8 0 1080 0 C1080 356.4 1080 712.8 1080 1080 C723.6 1080 367.2 1080 0 1080 C0 723.6 0 367.2 0 0 Z " fill="#FEFEFE" transform="translate(0,0)"/>
<path d="M0 0 C2.95570612 1.0262015 5.68079649 1.80995159 8.7578125 2.3046875 C8.7578125 1.6446875 8.7578125 0.9846875 8.7578125 0.3046875 C15.19492599 2.3166564 20.92060355 5.31469451 26.8828125 8.4296875 C28.56479736 9.30657227 28.56479736 9.30657227 30.28076172 10.20117188 C37.79523896 14.16364931 44.87086187 18.32415919 51.7578125 23.3046875 C52.50289062 23.76101562 53.24796875 24.21734375 54.015625 24.6875 C56.0078125 25.9296875 56.0078125 25.9296875 58.7578125 28.3046875 C59.1953125 31.6171875 59.1953125 31.6171875 58.7578125 34.3046875 C59.49257813 34.40394531 60.22734375 34.50320313 60.984375 34.60546875 C65.77111758 35.81226723 69.02120134 39.2027174 72.7578125 42.3046875 C73.34691406 42.74683594 73.93601562 43.18898438 74.54296875 43.64453125 C84.17206097 51.1338252 92.30107598 63.47314743 97.7578125 74.3046875 C97.4278125 74.9646875 97.0978125 75.6246875 96.7578125 76.3046875 C96.15195312 75.41007812 95.54609375 74.51546875 94.921875 73.59375 C89.47555938 65.68837357 83.8363197 58.84101117 76.7578125 52.3046875 C77.24615863 57.0660623 79.25345798 59.53551675 82.2578125 63.1796875 C101.64509022 87.54590742 114.34559776 118.7135576 117.17578125 149.76171875 C117.36785156 150.93089844 117.55992187 152.10007812 117.7578125 153.3046875 C120.87114073 155.38023965 121.96686045 155.6196636 125.5612793 155.89892578 C126.53626877 155.97885773 127.51125824 156.05878967 128.51579285 156.1411438 C129.56890152 156.21831635 130.62201019 156.29548889 131.70703125 156.375 C133.33690727 156.50393143 133.33690727 156.50393143 134.99971008 156.63546753 C137.30181688 156.81592337 139.60425678 156.99217138 141.90698242 157.16455078 C145.41467111 157.42739146 148.92119568 157.70274753 152.42773438 157.98046875 C154.66660927 158.15438626 156.90554004 158.32758634 159.14453125 158.5 C160.18751877 158.58122101 161.23050629 158.66244202 162.30509949 158.74612427 C166.63492884 159.06789561 170.91759206 159.34568816 175.26049805 159.28833008 C179.3670213 159.30753685 182.10812865 160.27850188 185.8828125 161.8671875 C186.52387939 162.1367627 187.16494629 162.40633789 187.82543945 162.68408203 C216.766335 175.0553833 240.88988919 193.67892827 257.7578125 220.3046875 C258.40363281 221.28824219 259.04945313 222.27179688 259.71484375 223.28515625 C267.85733286 236.31681489 273.05067398 251.4564146 276.7578125 266.3046875 C276.95890625 267.03816406 277.16 267.77164062 277.3671875 268.52734375 C281.7074549 285.59248601 281.33897637 303.04631733 278.7578125 320.3046875 C278.59796875 321.46484375 278.438125 322.625 278.2734375 323.8203125 C275.53705264 340.31257803 269.17829722 357.46067082 259.7578125 371.3046875 C259.08234375 372.34109375 258.406875 373.3775 257.7109375 374.4453125 C252.6581033 382.00664596 247.09456768 388.95261695 241.09130859 395.77001953 C239.84461631 397.20478842 238.63743297 398.67362182 237.43359375 400.14453125 C220.48078953 420.20582928 192.70828383 433.41193525 167.7578125 440.3046875 C164.1953125 440.4921875 164.1953125 440.4921875 161.7578125 440.3046875 C161.7578125 439.6446875 161.7578125 438.9846875 161.7578125 438.3046875 C159.27760753 438.41810241 156.79936281 438.54483436 154.3203125 438.6796875 C153.25973633 438.72609375 153.25973633 438.72609375 152.17773438 438.7734375 C150.36542062 438.87749379 148.55963262 439.08388642 146.7578125 439.3046875 C146.4278125 439.9646875 146.0978125 440.6246875 145.7578125 441.3046875 C115.3978125 441.3046875 85.0378125 441.3046875 53.7578125 441.3046875 C53.7578125 399.0646875 53.7578125 356.8246875 53.7578125 313.3046875 C58.3778125 313.3046875 62.9978125 313.3046875 67.7578125 313.3046875 C68.0878125 312.3146875 68.4178125 311.3246875 68.7578125 310.3046875 C69.43328125 310.18351562 70.10875 310.06234375 70.8046875 309.9375 C71.69671875 309.76992188 72.58875 309.60234375 73.5078125 309.4296875 C74.38953125 309.26726562 75.27125 309.10484375 76.1796875 308.9375 C79.50433149 308.12145102 81.87862838 307.46487667 83.9921875 304.67578125 C85.0962593 301.25653847 85.04667988 297.92031357 85.0078125 294.3671875 C85.01554688 293.66400391 85.02328125 292.96082031 85.03125 292.23632812 C85.00906318 286.31799483 84.1053376 282.52951661 80.00805664 278.24609375 C78.86035951 277.11232113 77.70485067 275.98641914 76.54296875 274.8671875 C75.62565224 273.96335327 75.62565224 273.96335327 74.68980408 273.04125977 C72.74034153 271.12173923 70.78128018 269.21244783 68.8203125 267.3046875 C66.86378965 265.3960962 64.90964209 263.48529497 62.96153259 261.56811523 C61.75128072 260.3775137 60.53612833 259.191867 59.31544495 258.01196289 C56.25071991 255.00165016 53.69202038 252.20135237 51.7578125 248.3046875 C51.7578125 247.6446875 51.7578125 246.9846875 51.7578125 246.3046875 C49.6931716 244.11929015 47.60676806 242.01534281 45.4453125 239.9296875 C39.07157629 233.74239861 39.07157629 233.74239861 37.02734375 230.890625 C36.60839844 230.36726562 36.18945312 229.84390625 35.7578125 229.3046875 C34.7678125 229.3046875 33.7778125 229.3046875 32.7578125 229.3046875 C31.02783203 227.9152832 31.02783203 227.9152832 29.140625 225.98046875 C28.45097656 225.28115234 27.76132812 224.58183594 27.05078125 223.86132812 C25.97763672 222.75047852 25.97763672 222.75047852 24.8828125 221.6171875 C24.17511719 220.89595703 23.46742188 220.17472656 22.73828125 219.43164062 C20.22936459 216.87366694 17.7301003 214.30642912 15.23461914 211.73535156 C12.26365585 208.70952437 9.80726007 206.73390429 5.7578125 205.3046875 C-5.55655873 205.48717736 -12.39657485 211.73435951 -20.2421875 219.3046875 C-20.95761719 219.99175781 -21.67304687 220.67882812 -22.41015625 221.38671875 C-25.74182098 224.65394123 -28.89180331 228.01267166 -31.9296875 231.5546875 C-35.23770591 235.38660023 -38.64724492 238.31843176 -42.96484375 240.98828125 C-46.82580128 243.55596249 -49.91001234 246.79267666 -53.1171875 250.1171875 C-56.680805 253.78891474 -60.25509187 257.36862032 -64.1328125 260.7109375 C-68.65604123 264.61289164 -72.89265299 268.77135872 -77.1171875 272.9921875 C-77.87515625 273.73791016 -78.633125 274.48363281 -79.4140625 275.25195312 C-80.13851563 275.97447266 -80.86296875 276.69699219 -81.609375 277.44140625 C-82.26019043 278.08811279 -82.91100586 278.73481934 -83.58154297 279.40112305 C-87.81758446 284.25681483 -87.66060486 288.79148238 -87.5625 295.03515625 C-86.92889332 301.50258052 -84.16620656 306.11831949 -79.2421875 310.3046875 C-76.54980763 310.9410526 -76.54980763 310.9410526 -73.6015625 310.9140625 C-71.99667969 310.96240234 -71.99667969 310.96240234 -70.359375 311.01171875 C-69.24820312 311.02589844 -68.13703125 311.04007813 -66.9921875 311.0546875 C-65.86554688 311.08433594 -64.73890625 311.11398437 -63.578125 311.14453125 C-60.79940729 311.21517662 -58.02152602 311.26790027 -55.2421875 311.3046875 C-54.52927554 331.98671851 -54.10163931 352.67089658 -54.01000977 373.36535645 C-53.99822423 375.6397228 -53.98122136 377.91406871 -53.95874023 380.18835449 C-53.63067397 415.30048589 -53.63067397 415.30048589 -66.6171875 429.1171875 C-77.35495744 439.06129618 -90.11666515 441.92493583 -104.48681641 441.80589294 C-105.75465281 441.81142734 -107.0224892 441.81696174 -108.32874489 441.82266384 C-111.80892133 441.83727886 -115.28863885 441.82732177 -118.76879978 441.81292713 C-122.53711112 441.80174074 -126.30536206 441.81378508 -130.07366943 441.82276917 C-137.44039975 441.83665184 -144.80695782 441.82918239 -152.17367983 441.81409358 C-160.76485868 441.79717147 -169.35599537 441.80045156 -177.94718575 441.80418766 C-193.28318453 441.81005714 -208.61910103 441.79593058 -223.95507812 441.77124023 C-238.81318241 441.74732217 -253.67117679 441.74023716 -268.52929688 441.75073242 C-284.73539347 441.76215945 -300.94143932 441.76404967 -317.14753532 441.74963433 C-318.87787755 441.7481086 -320.60821978 441.74658824 -322.33856201 441.74507332 C-323.61537714 441.7439366 -323.61537714 441.7439366 -324.91798651 441.74277691 C-330.89676841 441.73804786 -336.87552754 441.7398757 -342.85430908 441.74413872 C-350.14724061 441.74908166 -357.44006854 441.74300879 -364.73297644 441.72324442 C-368.44906593 441.71341935 -372.16499818 441.70821509 -375.88109589 441.71613693 C-379.92006398 441.72457046 -383.9586181 441.70952424 -387.99755859 441.69236755 C-389.15701807 441.6983776 -390.31647755 441.70438764 -391.51107216 441.71057981 C-402.68656266 441.62465576 -413.05828463 439.35748738 -423.1796875 434.6171875 C-423.93765625 434.27051025 -424.695625 433.92383301 -425.4765625 433.56665039 C-432.65461873 430.22417946 -439.50587789 426.46682421 -446.2421875 422.3046875 C-447.26054687 421.68335938 -448.27890625 421.06203125 -449.328125 420.421875 C-454.54140821 417.0485741 -454.54140821 417.0485741 -456.2421875 415.3046875 C-456.5 412.59765625 -456.5 412.59765625 -456.2421875 410.3046875 C-457.1084375 410.08039063 -457.9746875 409.85609375 -458.8671875 409.625 C-462.72050088 408.11756953 -465.30135995 405.99407896 -468.2421875 403.1796875 C-468.7683667 402.6839624 -469.2945459 402.1882373 -469.83666992 401.67749023 C-473.81475131 397.86112449 -477.27766957 393.96931801 -480.2421875 389.3046875 C-480.80292969 388.43585938 -481.36367188 387.56703125 -481.94140625 386.671875 C-493.56605067 367.75976369 -502.44950261 342.54790602 -503.2421875 320.3046875 C-503.27779785 319.37301758 -503.3134082 318.44134766 -503.35009766 317.48144531 C-503.7763752 304.12194924 -503.5050039 291.29886884 -500.2421875 278.3046875 C-500.05946289 277.54978027 -499.87673828 276.79487305 -499.68847656 276.01708984 C-494.10542261 253.59778208 -483.80787918 232.46686038 -468.2421875 215.3046875 C-468.2421875 217.92582458 -468.55511195 219.81403862 -469.2421875 222.3046875 C-460.9266959 217.46872785 -452.22677408 210.82098712 -449.2421875 201.3046875 C-449.2421875 200.3146875 -449.2421875 199.3246875 -449.2421875 198.3046875 C-434.20397754 183.93555044 -410.9377598 177.11538763 -391.2421875 172.3046875 C-391.13148926 171.70406494 -391.02079102 171.10344238 -390.90673828 170.48461914 C-390.40252804 167.77704688 -389.8850477 165.07218065 -389.3671875 162.3671875 C-389.19316406 161.42166016 -389.01914062 160.47613281 -388.83984375 159.50195312 C-388.66582031 158.60283203 -388.49179687 157.70371094 -388.3125 156.77734375 C-388.15539551 155.94468994 -387.99829102 155.11203613 -387.83642578 154.25415039 C-387.64032715 153.61082764 -387.44422852 152.96750488 -387.2421875 152.3046875 C-386.5821875 151.9746875 -385.9221875 151.6446875 -385.2421875 151.3046875 C-385.2421875 152.6246875 -385.2421875 153.9446875 -385.2421875 155.3046875 C-384.5821875 155.3046875 -383.9221875 155.3046875 -383.2421875 155.3046875 C-383.16226563 154.52867187 -383.08234375 153.75265625 -383 152.953125 C-381.78104691 147.08455704 -379.2870356 141.68411246 -376.94921875 136.1796875 C-374.55337899 130.31213949 -374.55337899 130.31213949 -374.7578125 124.11328125 C-375.40382603 119.03373939 -373.91518472 116.8425309 -371.1171875 112.7421875 C-370.66996338 112.05962891 -370.22273926 111.37707031 -369.76196289 110.67382812 C-356.68318896 91.25552214 -340.37067332 76.52065426 -318.3046875 68.3046875 C-317.52432129 68.01392334 -316.74395508 67.72315918 -315.93994141 67.42358398 C-307.75369444 64.5378664 -299.8032198 64.1475214 -291.1953125 64.13671875 C-289.79487701 64.13172615 -289.79487701 64.13172615 -288.3661499 64.12663269 C-286.40637705 64.12159906 -284.44659572 64.11922325 -282.48681641 64.11938477 C-279.48716337 64.11718381 -276.48787009 64.09895117 -273.48828125 64.08007812 C-271.57812625 64.07714635 -269.66796952 64.07516011 -267.7578125 64.07421875 C-266.86298157 64.06703323 -265.96815063 64.05984772 -265.04620361 64.05244446 C-264.21143494 64.05552109 -263.37666626 64.05859772 -262.51660156 64.06176758 C-261.42028412 64.05963005 -261.42028412 64.05963005 -260.30181885 64.05744934 C-257.93360966 64.34172919 -256.30355155 65.1331675 -254.2421875 66.3046875 C-254.2421875 67.6246875 -254.2421875 68.9446875 -254.2421875 70.3046875 C-253.67910889 70.35584717 -253.11603027 70.40700684 -252.53588867 70.4597168 C-235.28081358 72.09935495 -217.81516634 74.07534952 -201.2421875 79.3046875 C-199.994375 79.68109375 -198.7465625 80.0575 -197.4609375 80.4453125 C-194.3816564 81.37962429 -191.30958632 82.33222379 -188.2421875 83.3046875 C-187.984375 82.45003906 -187.7265625 81.59539062 -187.4609375 80.71484375 C-181.63158424 64.40386493 -169.13653166 50.53741983 -157.2421875 38.3046875 C-156.05302734 37.07685547 -156.05302734 37.07685547 -154.83984375 35.82421875 C-115.34494106 -2.42281972 -51.98863673 -18.81001934 0 0 Z " fill="#849CFC" transform="translate(536.2421875,231.6953125)"/>
<path d="M0 0 C3.81772843 2.67877278 6.70640752 5.62428286 9.66796875 9.203125 C11.94671441 11.89063534 14.35150903 14.41596367 16.8125 16.9375 C17.64265625 17.7934375 18.4728125 18.649375 19.328125 19.53125 C21.4533712 21.76201859 21.4533712 21.76201859 24.5625 21.4375 C26.45345038 23.24533168 28.16050006 25.03650388 29.875 27 C30.60650269 27.82056885 30.60650269 27.82056885 31.3527832 28.65771484 C32.32142556 29.74737706 33.28627902 30.8404207 34.24707031 31.93701172 C35.36079389 33.20741727 36.4875847 34.46634896 37.6171875 35.72265625 C41.5625 40.16821172 41.5625 40.16821172 41.5625 42.4375 C48.09282656 50.71454624 56.02052418 57.95496753 63.58203125 65.28564453 C65.05099807 66.7123833 66.51042293 68.14833642 67.96875 69.5859375 C68.82791016 70.42302246 69.68707031 71.26010742 70.57226562 72.12255859 C74.2097541 76.35350385 73.80090166 80.92802096 73.875 86.3125 C73.90400391 87.00730469 73.93300781 87.70210937 73.96289062 88.41796875 C74.02631236 93.59903701 72.83476117 96.46619225 69.5625 100.4375 C66.53245487 102.20502632 63.74156794 102.56397653 60.3125 102.9375 C59.075 103.1025 57.8375 103.2675 56.5625 103.4375 C56.2325 104.0975 55.9025 104.7575 55.5625 105.4375 C50.9425 105.4375 46.3225 105.4375 41.5625 105.4375 C41.5625 147.6775 41.5625 189.9175 41.5625 233.4375 C71.9225 233.4375 102.2825 233.4375 133.5625 233.4375 C133.8925 232.4475 134.2225 231.4575 134.5625 230.4375 C139.5125 230.4375 144.4625 230.4375 149.5625 230.4375 C149.5625 231.0975 149.5625 231.7575 149.5625 232.4375 C150.2225 232.7675 150.8825 233.0975 151.5625 233.4375 C150.12682267 233.75826956 148.68878018 234.06844808 147.25 234.375 C146.44949219 234.54902344 145.64898438 234.72304688 144.82421875 234.90234375 C133.88199686 236.69765441 122.83227829 236.67731925 111.77348709 236.85249138 C108.6122713 236.9031741 105.45121342 236.95984012 102.29013062 237.01820374 C93.31059053 237.18329871 84.33093726 237.34055206 75.35107422 237.48706055 C69.83989516 237.57739529 64.32894622 237.67694727 58.81803513 237.78232002 C56.72333254 237.82052425 54.62856214 237.85518265 52.533741 237.8862133 C49.61162011 237.92971864 46.68993415 237.98490751 43.76806641 238.04272461 C42.47444687 238.05763443 42.47444687 238.05763443 41.1546936 238.07284546 C36.79840104 238.17173976 33.57476262 238.58596901 29.5625 240.4375 C26.75992441 240.72255854 24.03486143 240.92073569 21.2265625 241.02734375 C20.42844147 241.06415756 19.63032043 241.10097137 18.80801392 241.13890076 C16.3931276 241.24751056 13.97799839 241.34362366 11.5625 241.4375 C10.2744043 241.49309082 8.98630859 241.54868164 7.65917969 241.60595703 C-13.1371435 242.43791979 -33.96053193 242.61610855 -54.77142334 242.72360229 C-57.66126416 242.73911037 -60.55079544 242.76387927 -63.44049072 242.79666138 C-67.54766404 242.84241301 -71.65429943 242.85423188 -75.76171875 242.86328125 C-77.60818748 242.8894754 -77.60818748 242.8894754 -79.49195862 242.91619873 C-84.91160288 242.90276976 -89.27873516 242.77576653 -94.21972656 240.44677734 C-101.31357251 237.24194339 -108.9678532 237.85277247 -116.59765625 237.86328125 C-118.40863223 237.85105406 -120.21959715 237.83709177 -122.0305481 237.82159424 C-126.03768187 237.7913068 -130.0446098 237.77393696 -134.05184937 237.76589966 C-140.64516482 237.75249483 -147.23813076 237.71019531 -153.83129883 237.66577148 C-168.15279901 237.57473872 -182.47436727 237.51964762 -196.79604286 237.46636492 C-207.22504148 237.42740568 -217.65402448 237.38462525 -228.08300781 237.34179688 C-229.11948192 237.33755632 -230.15595603 237.33331577 -231.22383845 237.32894671 C-243.13370783 237.28014783 -255.04356748 237.22960733 -266.95341492 237.17570496 C-268.03929805 237.17079951 -269.12518118 237.16589407 -270.24396986 237.16083997 C-274.64667886 237.14092724 -279.04938774 237.12099278 -283.45209539 237.10078275 C-296.68649289 237.04013192 -309.92086968 236.98739026 -323.15534782 236.94786322 C-331.6146577 236.92228463 -340.07392561 236.89005912 -348.53319263 236.85293615 C-353.49297649 236.83147683 -358.45271829 236.81337637 -363.41254044 236.8037796 C-368.02066604 236.79482301 -372.62866801 236.77675222 -377.23673427 236.7518667 C-378.90747455 236.74443693 -380.57823344 236.74026764 -382.24899018 236.73981631 C-392.17940021 236.73505781 -401.62771174 236.15195402 -411.4375 234.4375 C-411.4375 234.1075 -411.4375 233.7775 -411.4375 233.4375 C-410.79071771 233.43690291 -410.14393542 233.43630582 -409.47755367 233.43569064 C-371.11472131 233.39976992 -332.7519696 233.34308984 -294.38921003 233.25957905 C-289.77941182 233.249562 -285.16961326 233.2397178 -280.55981445 233.22998047 C-279.64211514 233.2280391 -278.72441582 233.22609772 -277.77890744 233.22409752 C-262.93408212 233.19310547 -248.08927225 233.17610468 -233.24442068 233.16430578 C-218.00383669 233.15187973 -202.76333356 233.12434553 -187.52280062 233.08288693 C-178.12417312 233.05779313 -168.72567977 233.04437971 -159.32701828 233.04607043 C-152.8755231 233.04610026 -146.42416424 233.03140945 -139.97272221 233.00533572 C-136.2546622 232.99073775 -132.5368817 232.98244526 -128.81879807 232.99169731 C-124.77682837 233.00158452 -120.73559094 232.98037727 -116.69367981 232.95648193 C-115.53313467 232.96424235 -114.37258954 232.97200277 -113.17687637 232.97999835 C-99.58167142 232.83835597 -88.33914144 228.88327751 -78.40625 219.5234375 C-66.11000879 206.44565553 -67.14967344 189.46859073 -67.2421875 172.67578125 C-67.24592374 170.67368207 -67.24876782 168.67158104 -67.25076294 166.66947937 C-67.25835128 161.43347 -67.2779579 156.19757391 -67.3001709 150.96160889 C-67.3207334 145.60528088 -67.32978678 140.24893434 -67.33984375 134.89257812 C-67.36120887 124.40749465 -67.39635122 113.92252452 -67.4375 103.4375 C-75.6875 103.4375 -83.9375 103.4375 -92.4375 103.4375 C-92.7675 102.4475 -93.0975 101.4575 -93.4375 100.4375 C-94.6440625 99.261875 -94.6440625 99.261875 -95.875 98.0625 C-100.0736317 93.76146265 -100.74283593 89.91447986 -100.8125 84 C-100.84085937 82.90816406 -100.86921875 81.81632813 -100.8984375 80.69140625 C-100.03329677 74.5840992 -95.75810272 70.50712142 -91.515625 66.28515625 C-91.05194519 65.82193466 -90.58826538 65.35871307 -90.11053467 64.88145447 C-89.1346552 63.90857509 -88.15636763 62.93810571 -87.17578125 61.9699707 C-85.6999831 60.51232952 -84.23224672 59.04694593 -82.765625 57.58007812 C-78.02673839 52.85961674 -73.21513851 48.28177159 -68.13574219 43.9284668 C-64.92812262 41.11234651 -62.0552008 37.96567686 -59.125 34.8671875 C-56.93071114 32.88339728 -55.14243484 31.61369736 -52.62890625 30.15625 C-47.73051472 27.20434574 -44.17977265 23.28428459 -40.375 19.0625 C-39.03100701 17.59538325 -37.68596414 16.12922755 -36.33984375 14.6640625 C-35.3650708 13.60143188 -35.3650708 13.60143188 -34.37060547 12.51733398 C-25.16803379 2.61625945 -13.83949225 -8.5940671 0 0 Z " fill="#EFEFF3" transform="translate(548.4375,439.5625)"/>
<path d="M0 0 C1.12792969 0.60972656 2.25585938 1.21945312 3.41796875 1.84765625 C6 4 6 4 6.375 7.25 C6.25125 8.1575 6.1275 9.065 6 10 C5.07960937 10.3403125 4.15921875 10.680625 3.2109375 11.03125 C-18.17110368 19.13391824 -46.54689836 34.66931366 -57.875 55.4375 C-58.431875 56.7059375 -58.431875 56.7059375 -59 58 C-60.65 58 -62.3 58 -64 58 C-64.08765625 59.13824219 -64.1753125 60.27648437 -64.265625 61.44921875 C-64.88083651 66.34832437 -66.69544218 70.3628318 -68.75 74.8125 C-71.63748654 81.37302976 -74.05775086 87.87552821 -75.875 94.8125 C-76.06545898 95.52704346 -76.25591797 96.24158691 -76.45214844 96.9777832 C-79.50025968 109.20743389 -80.35045589 121.38440024 -80.31567383 133.93041992 C-80.31251694 136.29978687 -80.33606894 138.66789564 -80.36132812 141.03710938 C-80.45283757 163.0731841 -75.44563463 183.84120825 -64.95361328 203.2265625 C-64.08837716 204.83564473 -63.25885633 206.46380495 -62.43359375 208.09375 C-54.80765826 222.88848044 -43.53970536 234.59008809 -28 241 C-20.0165661 243.2445964 -11.74024374 243.65204279 -3.5 244.125 C-2.44433334 244.18803818 -2.44433334 244.18803818 -1.36734009 244.25234985 C13.18581088 245.09457356 27.73833224 245.18830066 42.3125 245.1875 C43.39354004 245.18840637 44.47458008 245.18931274 45.58837891 245.19024658 C55.68739872 245.18928718 65.70503133 245.1470925 75.76831055 244.22485352 C82.26267766 243.7729904 88.77490571 243.85285081 95.28222656 243.86962891 C97.73248569 243.87496188 100.1825591 243.86966468 102.6328125 243.86328125 C104.25000039 243.86394277 105.86718817 243.86522545 107.484375 243.8671875 C108.53839508 243.86415115 108.53839508 243.86415115 109.6137085 243.86105347 C113.96174254 243.8801543 118.27732133 244.07069072 122.61620903 244.35873127 C133.69755453 245.08814375 144.74917159 245.16383782 155.8515625 245.16796875 C157.9245099 245.17119457 159.99745709 245.17455955 162.07040405 245.17805481 C166.39183071 245.18399878 170.71323752 245.18589964 175.03466797 245.18530273 C180.50358178 245.1852014 185.97236496 245.19884587 191.44124794 245.21607494 C195.71760616 245.22733108 199.99393414 245.22921782 204.27030563 245.22869301 C206.28321151 245.22985305 208.29611871 245.23415973 210.30900955 245.24202538 C221.03960835 245.28003598 231.66893294 245.00785483 242.36474609 244.0949707 C243.30053308 244.01529902 244.23632008 243.93562735 245.20046425 243.85354137 C261.33002005 242.34287214 275.57891443 238.13325487 287 226 C291.49460815 219.79874354 292.15363676 214.20264511 292.31640625 206.734375 C292.33718735 205.94097717 292.35796844 205.14757935 292.37937927 204.33013916 C292.44459973 201.80351156 292.50363144 199.27678279 292.5625 196.75 C292.6057114 195.03384384 292.64932653 193.31769778 292.69335938 191.6015625 C292.80025283 187.40114454 292.90159729 183.20062511 293 179 C293.66 179 294.32 179 295 179 C295 180.65 295 182.3 295 184 C295.99 184 296.98 184 298 184 C298.09988492 188.92547891 298.17194055 193.85035096 298.21972656 198.77661133 C298.239675 200.44761442 298.26684401 202.11854924 298.30175781 203.78930664 C298.57742397 217.33343371 297.57984458 228.55530834 288 239 C279.31982565 247.96078343 268.72599793 252.97323795 256.21054554 253.25447559 C253.92594348 253.2667248 251.64126673 253.26805089 249.35664368 253.26069641 C248.0930794 253.26452196 246.82951513 253.26834751 245.52766103 253.27228898 C242.03631441 253.28254289 238.54507079 253.28039382 235.05371583 253.27610838 C231.28191856 253.27363633 227.51014578 253.28266139 223.73835754 253.29014587 C216.35428223 253.30288271 208.9702433 253.30468774 201.58615885 253.30234561 C195.58102203 253.30056075 189.57589623 253.30231571 183.57076073 253.30657005 C182.28747373 253.30746284 182.28747373 253.30746284 180.97826174 253.30837366 C179.24007851 253.30958545 177.50189529 253.31079958 175.76371207 253.31201603 C159.46879614 253.32288817 143.17390091 253.32073093 126.87898382 253.31463119 C111.98937166 253.30946531 97.099825 253.32070936 82.2102258 253.33972941 C66.90614562 253.35912832 51.6020964 253.36736002 36.29800385 253.36360615 C27.71221556 253.36169684 19.12648296 253.36415508 10.54070473 253.37832069 C3.22936595 253.39026184 -4.08188287 253.39160902 -11.39322295 253.37953053 C-15.11941283 253.37366026 -18.8454384 253.3724906 -22.57161713 253.38453293 C-26.62178211 253.39746945 -30.6715596 253.38688301 -34.72172546 253.3742218 C-35.88459554 253.38159609 -37.04746561 253.38897037 -38.24557418 253.39656812 C-49.43235097 253.32333248 -59.80626846 251.05740308 -69.9375 246.3125 C-70.69546875 245.96582275 -71.4534375 245.61914551 -72.234375 245.26196289 C-79.41243123 241.91949196 -86.26369039 238.16213671 -93 234 C-94.01835938 233.37867188 -95.03671875 232.75734375 -96.0859375 232.1171875 C-101.29922071 228.7438866 -101.29922071 228.7438866 -103 227 C-103.2578125 224.29296875 -103.2578125 224.29296875 -103 222 C-103.86625 221.77570313 -104.7325 221.55140625 -105.625 221.3203125 C-109.47831338 219.81288203 -112.05917245 217.68939146 -115 214.875 C-115.5261792 214.3792749 -116.0523584 213.8835498 -116.59448242 213.37280273 C-120.57256381 209.55643699 -124.03548207 205.66463051 -127 201 C-127.56074219 200.13117188 -128.12148437 199.26234375 -128.69921875 198.3671875 C-140.32386317 179.45507619 -149.20731511 154.24321852 -150 132 C-150.03561035 131.06833008 -150.0712207 130.13666016 -150.10791016 129.17675781 C-150.5341877 115.81726174 -150.2628164 102.99418134 -147 90 C-146.81727539 89.24509277 -146.63455078 88.49018555 -146.44628906 87.71240234 C-140.86323511 65.29309458 -130.56569168 44.16217288 -115 27 C-115 29.62113708 -115.31292445 31.50935112 -116 34 C-107.6845084 29.16404035 -98.98458658 22.51629962 -96 13 C-96 12.01 -96 11.02 -96 10 C-95.27514404 9.85159668 -94.55028809 9.70319336 -93.8034668 9.55029297 C-85.81961536 7.75730667 -79.0653067 4.85169357 -71.8125 1.125 C-46.23333553 -11.49799206 -25.78111779 -14.35714943 0 0 Z " fill="#617EFB" transform="translate(183,420)"/>
<path d="M0 0 C15.84 0.495 15.84 0.495 32 1 C32 49.18 32 97.36 32 147 C22.1 147 12.2 147 2 147 C2 142.71 2 138.42 2 134 C-3.41342681 135.14514798 -5.9342948 136.34012809 -9 141 C-7.02 141.33 -5.04 141.66 -3 142 C-3 142.66 -3 143.32 -3 144 C-21.44696311 150.44413911 -40.89578885 155.33505676 -59.67578125 146.78125 C-72.80345237 139.43138747 -82.14008161 129.48958589 -86.23828125 115.05078125 C-90.11070799 99.54121569 -90.46381668 79.82088145 -84 65 C-83.50242187 63.80503906 -83.00484375 62.61007812 -82.4921875 61.37890625 C-76.40572201 47.60637378 -66.67795938 39.63136141 -53.0625 33.75 C-37.797094 28.0404037 -26.42221217 30.5812352 -12 37 C-9.28951111 38.27211248 -6.6455224 39.59625342 -4 41 C-3.12717394 36.34356386 -2.73597122 31.73526604 -2.5 27.01171875 C-2.41672629 25.48632487 -2.3333912 23.96093434 -2.25 22.43554688 C-2.12351231 20.04784476 -1.99858045 17.66007115 -1.875 15.2722168 C-1.75392706 12.95598747 -1.62724692 10.64011582 -1.5 8.32421875 C-1.44682617 7.24463142 -1.44682617 7.24463142 -1.39257812 6.14323425 C-1.1131165 1.1131165 -1.1131165 1.1131165 0 0 Z " fill="#3269FC" transform="translate(707,694)"/>
<path d="M0 0 C9.90119396 8.45695966 18.09084367 19.9044412 20.28515625 32.96875 C20.52913446 37.1537157 20.51626547 41.33985747 20.53515625 45.53125 C20.55578125 46.64822266 20.57640625 47.76519531 20.59765625 48.91601562 C20.66310895 63.02925498 16.94548775 78.28123113 7.03515625 88.90625 C-0.81345843 95.84589371 -9.95521354 100.36457121 -19.71484375 103.96875 C-20.64079346 104.31333252 -21.56674316 104.65791504 -22.52075195 105.01293945 C-40.77618094 110.47575414 -63.26342066 105.6790386 -79.66015625 96.8671875 C-91.47285471 89.52579178 -99.19336331 76.24328586 -102.71484375 62.96875 C-103.18824617 58.96776814 -103.19528041 55.05493204 -103.08984375 51.03125 C-103.07187744 49.97365479 -103.05391113 48.91605957 -103.03540039 47.82641602 C-102.67110059 32.35502134 -99.86484525 17.24590861 -88.57421875 5.73046875 C-87.960625 5.14910156 -87.34703125 4.56773437 -86.71484375 3.96875 C-85.73257812 2.95748047 -85.73257812 2.95748047 -84.73046875 1.92578125 C-62.61995997 -19.57951287 -23.76709321 -17.78257334 0 0 Z " fill="#3B70FC" transform="translate(445.71484375,738.03125)"/>
<path d="M0 0 C1.16727037 0.97489174 2.3137095 1.9752908 3.4375 3 C4.08589844 3.55816406 4.73429687 4.11632812 5.40234375 4.69140625 C11.27272539 10.08855175 16.37328234 16.61653937 19.4375 24 C19.4375 27.3 19.4375 30.6 19.4375 34 C7.2275 34 -4.9825 34 -17.5625 34 C-19.5625 30 -19.5625 30 -19.5625 27 C-20.41134766 26.60167969 -20.41134766 26.60167969 -21.27734375 26.1953125 C-23.5625 25 -23.5625 25 -25.69140625 23.4921875 C-34.39926998 17.70558143 -43.47814462 17.79223839 -53.5625 19 C-63.85135018 21.15850004 -72.12498322 26.94653924 -79.0546875 34.6796875 C-83.66549082 41.77506878 -84.00853112 48.26380044 -83.875 56.5 C-83.87822266 57.49386719 -83.88144531 58.48773437 -83.88476562 59.51171875 C-83.79060735 72.47132116 -79.63933221 85.13386921 -70.5625 94.6875 C-63.69887571 101.35882447 -56.21984092 101.49858639 -47.125 101.6875 C-46.01189453 101.72166016 -44.89878906 101.75582031 -43.75195312 101.79101562 C-41.02223617 101.87302429 -38.2928214 101.94232837 -35.5625 102 C-35.5625 101.01 -35.5625 100.02 -35.5625 99 C-34.85222656 98.67386719 -34.14195312 98.34773437 -33.41015625 98.01171875 C-32.49105469 97.57472656 -31.57195312 97.13773438 -30.625 96.6875 C-29.70847656 96.25824219 -28.79195313 95.82898438 -27.84765625 95.38671875 C-25.25280588 94.14921339 -25.25280588 94.14921339 -24.5625 91 C-23.5725 90.67 -22.5825 90.34 -21.5625 90 C-20.5725 88.02 -19.5825 86.04 -18.5625 84 C-5.6925 84 7.1775 84 20.4375 84 C20.4375 97.45262012 14.25114353 105.0006116 5.3125 114.5625 C-10.00831114 129.46641832 -30.09923414 133.92955342 -50.8125 134.375 C-61.85388864 134.13135853 -72.78449634 132.34337003 -82.5625 127 C-83.75746094 126.36964844 -83.75746094 126.36964844 -84.9765625 125.7265625 C-91.64701677 121.98862992 -97.11424353 117.33763197 -102.5625 112 C-103.19027344 111.40832031 -103.81804687 110.81664062 -104.46484375 110.20703125 C-119.22842868 95.04171612 -122.02021551 73.79956962 -121.765625 53.67578125 C-121.34912206 38.14580875 -114.9376522 22.6755046 -104.5625 11 C-104.08941406 10.43539062 -103.61632812 9.87078125 -103.12890625 9.2890625 C-77.5088066 -18.95054858 -30.20348051 -21.70131966 0 0 Z " fill="#366CFC" transform="translate(244.5625,711)"/>
<path d="M0 0 C2.11380425 0.00316292 4.22621221 -0.0203163 6.33984375 -0.0456543 C7.68359199 -0.04792712 9.02734398 -0.04863086 10.37109375 -0.04760742 C11.593125 -0.05058838 12.81515625 -0.05356934 14.07421875 -0.05664062 C17.12109375 0.31567383 17.12109375 0.31567383 18.78945923 1.46810913 C20.68670247 4.10042272 20.48604517 6.02268496 20.47412109 9.24902344 C20.47777679 10.47137192 20.4814325 11.6937204 20.48519897 12.95310974 C20.48039898 13.60661345 20.47559898 14.26011715 20.47065353 14.933424 C20.45687482 16.99138206 20.46337895 19.04837961 20.47549438 21.1063385 C20.50637631 26.95718615 20.50176764 32.80781328 20.48144531 38.65869141 C20.47041703 42.24156387 20.4839598 45.82372219 20.51134109 49.40649605 C20.51931499 51.41358335 20.49959058 53.42072062 20.47909546 55.42771912 C20.557321 65.25079798 22.64278462 73.09821014 28.12109375 81.31567383 C32.67538626 83.91687551 37.51843434 83.71801002 42.62109375 83.75317383 C43.88373047 83.80248047 43.88373047 83.80248047 45.171875 83.8527832 C49.53520508 83.89057583 51.51402269 83.76918694 55.1015625 81.08911133 C56.98492639 78.50267349 58.06764155 76.55679474 58.93359375 73.50317383 C59.16691406 72.71297852 59.40023437 71.9227832 59.640625 71.10864258 C59.79917969 70.51696289 59.95773437 69.9252832 60.12109375 69.31567383 C60.45109375 69.31567383 60.78109375 69.31567383 61.12109375 69.31567383 C61.12109375 71.95567383 61.12109375 74.59567383 61.12109375 77.31567383 C61.78109375 77.31567383 62.44109375 77.31567383 63.12109375 77.31567383 C63.60706528 75.33816705 64.08448132 73.35855732 64.55859375 71.37817383 C64.82542969 70.27602539 65.09226562 69.17387695 65.3671875 68.03833008 C67.01684908 59.89259181 67.3051581 51.79206884 67.4375 43.49926758 C67.46867165 41.853666 67.46867165 41.853666 67.50047302 40.17481995 C67.56539172 36.70099614 67.62458297 33.22710251 67.68359375 29.75317383 C67.72683394 27.38532832 67.7704499 25.01748965 67.81445312 22.6496582 C67.92171407 16.87173363 68.02121528 11.09374951 68.12109375 5.31567383 C77.36109375 5.31567383 86.60109375 5.31567383 96.12109375 5.31567383 C96.12109375 41.28567383 96.12109375 77.25567383 96.12109375 114.31567383 C85.89109375 114.31567383 75.66109375 114.31567383 65.12109375 114.31567383 C64.46109375 112.66567383 63.80109375 111.01567383 63.12109375 109.31567383 C62.57171143 109.52248779 62.0223291 109.72930176 61.45629883 109.94238281 C58.95019281 110.88326247 56.44193266 111.81826414 53.93359375 112.75317383 C53.06927734 113.07866211 52.20496094 113.40415039 51.31445312 113.73950195 C50.47333984 114.05209961 49.63222656 114.36469727 48.765625 114.68676758 C47.99581299 114.97479248 47.22600098 115.26281738 46.43286133 115.55957031 C40.4486331 117.51681551 34.67093335 117.53225205 28.43359375 117.56567383 C27.01916992 117.59661133 27.01916992 117.59661133 25.57617188 117.62817383 C13.86967072 117.69253947 4.45713792 114.38866923 -4.04296875 106.24145508 C-14.63091623 94.88023053 -18.94453044 81.31868181 -19.04003906 65.85473633 C-19.04964661 64.59322754 -19.05925415 63.33171875 -19.06915283 62.03198242 C-19.07400018 60.66821475 -19.07827916 59.30444495 -19.08203125 57.94067383 C-19.08485863 57.24758118 -19.087686 56.55448853 -19.09059906 55.84039307 C-19.10553391 52.17655055 -19.11480087 48.51274687 -19.11914062 44.84887695 C-19.12463424 41.07618745 -19.14869692 37.3038572 -19.17711258 33.53128052 C-19.19577668 30.61782805 -19.20094643 27.70446178 -19.2024765 24.79095459 C-19.20549222 23.40035018 -19.2134841 22.0097469 -19.22666168 20.61920166 C-19.24380852 18.67174488 -19.23998468 16.72413808 -19.23535156 14.77661133 C-19.23899719 13.6710791 -19.24264282 12.56554687 -19.24639893 11.42651367 C-18.81783256 7.79868263 -17.77996423 5.42225188 -15.87890625 2.31567383 C-11.09203357 -0.87557462 -5.59719384 -0.01758895 0 0 Z " fill="#386DFC" transform="translate(500.87890625,726.684326171875)"/>
<path d="M0 0 C36.44755818 -1.0675017 73.60255114 6.34270604 106.56298828 22.07373047 C106.56298828 23.06373047 106.56298828 24.05373047 106.56298828 25.07373047 C100.9287277 24.7823032 96.45022903 23.75545132 91.18798828 21.69873047 C57.05023012 9.06189939 17.97691643 17.20697019 -14.43701172 31.07373047 C-47.54271975 46.53844866 -75.17185771 72.75101623 -90.43701172 106.07373047 C-94.86215062 105.67144511 -98.6286061 104.70844434 -102.81201172 103.19873047 C-109.60830225 100.87499878 -116.47144214 99.66896433 -123.54101562 98.54052734 C-127.09609533 97.96749477 -130.64744615 97.37284854 -134.19873047 96.77685547 C-141.61010801 95.53407727 -149.02312817 94.30148416 -156.43701172 93.07373047 C-156.43701172 91.75373047 -156.43701172 90.43373047 -156.43701172 89.07373047 C-159.43328789 88.2059816 -162.09061054 87.95183154 -165.20556641 87.96020508 C-166.61657623 87.96031837 -166.61657623 87.96031837 -168.05609131 87.96043396 C-169.06351379 87.96559525 -170.07093628 87.97075653 -171.10888672 87.97607422 C-172.14644104 87.97748917 -173.18399536 87.97890411 -174.25299072 87.98036194 C-177.56436048 87.98595599 -180.87566243 87.99850744 -184.18701172 88.01123047 C-186.43310449 88.01624624 -188.67919833 88.02080901 -190.92529297 88.02490234 C-196.42922232 88.03592348 -201.93311218 88.05265573 -207.43701172 88.07373047 C-204.25438715 85.24000988 -202.2740054 84.70821067 -198.04516602 84.76489258 C-196.42779793 84.77491554 -196.42779793 84.77491554 -194.77775574 84.78514099 C-193.6173024 84.80689896 -192.45684906 84.82865692 -191.26123047 84.85107422 C-189.46344902 84.8645565 -189.46344902 84.8645565 -187.62934875 84.87831116 C-183.7941103 84.90836009 -179.95949541 84.95813032 -176.12451172 85.01123047 C-172.30028119 85.05910854 -168.47621619 85.1024727 -164.65180969 85.13343811 C-162.27213493 85.15313666 -159.89251596 85.18269825 -157.5131073 85.22337341 C-148.05723534 85.43377854 -148.05723534 85.43377854 -139.57373047 81.72607422 C-136.81606966 78.46296615 -134.45526387 75.2014462 -132.44091797 71.43310547 C-123.22556894 54.2573599 -109.25654804 40.00235373 -92.43701172 30.07373047 C-91.53184814 29.53063232 -91.53184814 29.53063232 -90.60839844 28.9765625 C-63.03596913 12.52261217 -32.33103192 0.97815785 0 0 Z " fill="#C5D1FB" transform="translate(438.43701171875,208.92626953125)"/>
<path d="M0 0 C1.40043549 -0.0049926 1.40043549 -0.0049926 2.8291626 -0.01008606 C4.78893545 -0.01511969 6.74871678 -0.0174955 8.70849609 -0.01733398 C11.70814913 -0.01953494 14.70744241 -0.03776758 17.70703125 -0.05664062 C19.61718625 -0.0595724 21.52734298 -0.06155864 23.4375 -0.0625 C24.33233093 -0.06968552 25.22716187 -0.07687103 26.14910889 -0.08427429 C26.98387756 -0.08119766 27.81864624 -0.07812103 28.67871094 -0.07495117 C29.77502838 -0.0770887 29.77502838 -0.0770887 30.89349365 -0.07926941 C33.26170284 0.20501044 34.89176095 0.99644875 36.953125 2.16796875 C36.953125 3.48796875 36.953125 4.80796875 36.953125 6.16796875 C38.933125 6.16796875 40.913125 6.16796875 42.953125 6.16796875 C42.953125 6.49796875 42.953125 6.82796875 42.953125 7.16796875 C42.38207031 7.18214844 41.81101562 7.19632812 41.22265625 7.2109375 C33.46580617 7.6672228 27.07454277 10.20807427 19.953125 13.16796875 C19.12039063 13.46574219 18.28765625 13.76351563 17.4296875 14.0703125 C-5.2084784 22.2305816 -24.10610674 39.48917077 -34.37890625 61.1328125 C-39.64771296 73.40354448 -44.06923876 86.13065568 -44.36328125 99.53125 C-44.38406235 100.32323288 -44.40484344 101.11521576 -44.42625427 101.93119812 C-44.49135304 104.44753803 -44.55044923 106.96397747 -44.609375 109.48046875 C-44.652598 111.19206736 -44.69621348 112.9036561 -44.74023438 114.61523438 C-44.84699347 118.79937859 -44.94837135 122.98362237 -45.046875 127.16796875 C-50.02692564 128.93911647 -52.85245658 129.61559355 -58.046875 128.16796875 C-60.86890469 126.53213363 -63.56740876 124.75844624 -66.28125 122.94921875 C-78.71056974 114.94389417 -93.62343836 112.98750831 -108.046875 115.8671875 C-118.37458745 118.38570873 -127.80160237 123.17344487 -137.23046875 127.97753906 C-143.1627494 130.96823979 -148.45117671 133.19058201 -155.046875 134.16796875 C-155.706875 133.83796875 -156.366875 133.50796875 -157.046875 133.16796875 C-140.30388357 120.28874457 -120.37357466 113.13282355 -100.046875 108.16796875 C-99.93617676 107.56734619 -99.82547852 106.96672363 -99.71142578 106.34790039 C-99.20721554 103.64032813 -98.6897352 100.9354619 -98.171875 98.23046875 C-97.99785156 97.28494141 -97.82382813 96.33941406 -97.64453125 95.36523438 C-97.47050781 94.46611328 -97.29648438 93.56699219 -97.1171875 92.640625 C-96.88153076 91.39164429 -96.88153076 91.39164429 -96.64111328 90.11743164 C-96.34696533 89.15244751 -96.34696533 89.15244751 -96.046875 88.16796875 C-95.386875 87.83796875 -94.726875 87.50796875 -94.046875 87.16796875 C-94.046875 88.48796875 -94.046875 89.80796875 -94.046875 91.16796875 C-93.386875 91.16796875 -92.726875 91.16796875 -92.046875 91.16796875 C-91.96695313 90.39195312 -91.88703125 89.6159375 -91.8046875 88.81640625 C-90.58573441 82.94783829 -88.0917231 77.54739371 -85.75390625 72.04296875 C-83.35806649 66.17542074 -83.35806649 66.17542074 -83.5625 59.9765625 C-84.20851353 54.89702064 -82.71987222 52.70581215 -79.921875 48.60546875 C-79.47465088 47.92291016 -79.02742676 47.24035156 -78.56665039 46.53710938 C-65.48787646 27.11880339 -49.17536082 12.38393551 -27.109375 4.16796875 C-26.32900879 3.87720459 -25.54864258 3.58644043 -24.74462891 3.28686523 C-16.55838194 0.40114765 -8.6079073 0.01080265 0 0 Z " fill="#A2B5FB" transform="translate(245.046875,295.83203125)"/>
<path d="M0 0 C0.72348129 0.00091644 1.44696259 0.00183289 2.19236755 0.0027771 C3.71970187 0.00881273 5.24702436 0.02455797 6.77416992 0.04931641 C9.11616432 0.08586058 11.45657821 0.09033556 13.79882812 0.08984375 C15.2825658 0.09967374 16.76629273 0.11133023 18.25 0.125 C18.95210098 0.12722565 19.65420197 0.12945129 20.37757874 0.13174438 C25.32642099 0.22876474 25.32642099 0.22876474 27.55859375 2.4609375 C27.78564453 4.70751953 27.78564453 4.70751953 27.75390625 7.46875 C27.74746094 8.45488281 27.74101563 9.44101562 27.734375 10.45703125 C27.71761719 11.48957031 27.70085938 12.52210938 27.68359375 13.5859375 C27.67457031 14.62621094 27.66554688 15.66648437 27.65625 16.73828125 C27.63263122 19.31272842 27.59969524 21.88671962 27.55859375 24.4609375 C28.8115625 24.43773437 30.06453125 24.41453125 31.35546875 24.390625 C33.00650445 24.37186323 34.6575466 24.35366347 36.30859375 24.3359375 C37.13359375 24.31917969 37.95859375 24.30242188 38.80859375 24.28515625 C39.6078125 24.27871094 40.40703125 24.27226563 41.23046875 24.265625 C41.96362305 24.25515137 42.69677734 24.24467773 43.45214844 24.23388672 C45.85755451 24.49316206 47.47110869 25.26867825 49.55859375 26.4609375 C49.6165694 30.39837583 49.65218164 34.33570469 49.68359375 38.2734375 C49.70035156 39.39298828 49.71710938 40.51253906 49.734375 41.66601562 C49.74082031 42.73916016 49.74726562 43.81230469 49.75390625 44.91796875 C49.76437988 45.90772705 49.77485352 46.89748535 49.78564453 47.91723633 C49.55859375 50.4609375 49.55859375 50.4609375 47.55859375 53.4609375 C40.95859375 53.4609375 34.35859375 53.4609375 27.55859375 53.4609375 C28.21859375 72.9309375 28.87859375 92.4009375 29.55859375 112.4609375 C36.15859375 112.4609375 42.75859375 112.4609375 49.55859375 112.4609375 C51.38874473 116.12123945 51.81326057 117.23694406 51.82421875 121.05078125 C51.82808594 122.35112305 51.82808594 122.35112305 51.83203125 123.67773438 C51.82429687 124.57556641 51.8165625 125.47339844 51.80859375 126.3984375 C51.82019531 127.73938477 51.82019531 127.73938477 51.83203125 129.10742188 C51.82945312 129.97560547 51.826875 130.84378906 51.82421875 131.73828125 C51.82196289 132.52452881 51.81970703 133.31077637 51.81738281 134.12084961 C51.51770865 136.8306391 50.66479635 138.98076976 49.55859375 141.4609375 C44.33003955 141.61045621 39.10275813 141.7186971 33.87255859 141.79052734 C32.09759821 141.82050216 30.32278343 141.86129767 28.54833984 141.91357422 C9.18872497 142.46919626 9.18872497 142.46919626 1.55859375 135.4609375 C-2.5296956 131.02687507 -5.70486492 126.28345842 -7.44140625 120.4609375 C-7.19033201 118.3906389 -6.93733442 116.32055515 -6.67456055 114.25170898 C-6.24319776 109.08845453 -6.57586514 103.92802731 -6.79348755 98.75805664 C-7.46554785 82.65165972 -7.54999492 66.58032224 -7.44140625 50.4609375 C-11.73140625 50.4609375 -16.02140625 50.4609375 -20.44140625 50.4609375 C-20.77140625 41.8809375 -21.10140625 33.3009375 -21.44140625 24.4609375 C-17.81140625 24.4609375 -14.18140625 24.4609375 -10.44140625 24.4609375 C-10.49361328 22.36492188 -10.49361328 22.36492188 -10.546875 20.2265625 C-10.57501576 18.38803286 -10.60231561 16.54949021 -10.62890625 14.7109375 C-10.65404297 13.79054688 -10.67917969 12.87015625 -10.70507812 11.921875 C-10.71474609 11.03242187 -10.72441406 10.14296875 -10.734375 9.2265625 C-10.75008545 8.40961914 -10.7657959 7.59267578 -10.78198242 6.75097656 C-9.80499957 0.18172989 -5.83690513 -0.1198188 0 0 Z " fill="#4175FC" transform="translate(845.44140625,702.5390625)"/>
<path d="M0 0 C1.47057839 0.00031709 2.94118001 0.01164091 4.41162109 0.03173828 C5.18565277 0.03456818 5.95968445 0.03739807 6.75717163 0.04031372 C9.23329016 0.05152325 11.70904909 0.07662875 14.18505859 0.10205078 C15.86213671 0.1120796 17.53922049 0.12120562 19.21630859 0.12939453 C23.33103082 0.15146504 27.44548371 0.18599977 31.56005859 0.22705078 C33.4662366 8.6904107 33.83871632 16.78734437 33.79052734 25.44189453 C33.78979414 26.83327211 33.78985761 28.22465029 33.79064941 29.61602783 C33.78981021 33.35582357 33.77569101 37.09545186 33.75790024 40.83520126 C33.74752298 43.17257342 33.74036241 45.5099335 33.73428345 47.84732056 C33.70624104 58.47503217 33.64803671 69.10238936 33.57641602 79.72988892 C33.56009581 82.22136914 33.54520072 84.71285392 33.53076172 87.2043457 C33.47466778 96.77040099 33.39918945 106.3359895 33.29458618 115.90164185 C33.26196239 118.90542715 33.23558982 121.9091679 33.21444702 124.91305542 C33.18419233 129.09486653 33.12941812 133.27599602 33.07177734 137.45751953 C33.06537231 138.69898743 33.05896729 139.94045532 33.05236816 141.21954346 C33.03258911 142.35405945 33.01281006 143.48857544 32.99243164 144.6574707 C32.98132858 145.64245041 32.97022552 146.62743011 32.95878601 147.64225769 C32.49231169 150.66622731 31.69996813 152.06029485 29.56005859 154.22705078 C26.54492188 154.71289062 26.54492188 154.71289062 22.88037109 154.68798828 C22.23059296 154.68707184 21.58081482 154.6861554 20.91134644 154.68521118 C19.53782848 154.67917569 18.16432367 154.66343065 16.79101562 154.63867188 C14.69920779 154.60229683 12.60918013 154.59765169 10.51708984 154.59814453 C-0.0789575 154.52019623 -0.0789575 154.52019623 -5.43994141 152.22705078 C-5.48661102 132.70403178 -5.52190548 113.18102406 -5.54356575 93.65796089 C-5.55388919 84.59356957 -5.56796986 75.52921286 -5.59082031 66.46484375 C-5.61072157 58.56661929 -5.62365007 50.66841988 -5.6281184 42.77017105 C-5.63073133 38.58604893 -5.63689488 34.40199851 -5.65140152 30.21789932 C-5.66493394 26.28306695 -5.6691729 22.3483361 -5.66615677 18.41348267 C-5.66670889 16.96624068 -5.67071213 15.51899545 -5.67835236 14.07177353 C-5.68824521 12.10192037 -5.68473216 10.13201324 -5.68045044 8.16213989 C-5.68229403 7.0578319 -5.68413761 5.9535239 -5.68603706 4.81575203 C-5.2892379 0.64178774 -4.07746411 0.26912999 0 0 Z " fill="#4174FC" transform="translate(293.43994140625,689.77294921875)"/>
<path d="M0 0 C9.9 0 19.8 0 30 0 C30 35.97 30 71.94 30 109 C20.1 109 10.2 109 0 109 C0 73.03 0 37.06 0 0 Z " fill="#2661FE" transform="translate(768,732)"/>
<path d="M0 0 C0.66 0 1.32 0 2 0 C2 1.65 2 3.3 2 5 C2.99 5 3.98 5 5 5 C5.09988492 9.92547891 5.17194055 14.85035096 5.21972656 19.77661133 C5.239675 21.44761442 5.26684401 23.11854924 5.30175781 24.78930664 C5.57742397 38.33343371 4.57984458 49.55530834 -5 60 C-13.5362186 68.81217394 -24.07771756 73.96888556 -36.41971588 74.24609566 C-38.52771967 74.2544464 -40.63578465 74.2518617 -42.74377441 74.24050903 C-43.91033868 74.24221788 -45.07690295 74.24392673 -46.27881765 74.24568737 C-49.49885048 74.2484023 -52.71872046 74.24218895 -55.93873405 74.23213124 C-59.41783502 74.22346588 -62.89692887 74.22641908 -66.3760376 74.22793579 C-72.39787071 74.2289827 -78.41966036 74.22272646 -84.44148254 74.21146011 C-93.14793854 74.19518166 -101.8543736 74.18999471 -110.56084317 74.18748413 C-124.68770943 74.18311071 -138.81455255 74.16981117 -152.94140625 74.15087891 C-166.66145716 74.13251098 -180.38150177 74.11835894 -194.1015625 74.10986328 C-194.94776746 74.10933783 -195.79397241 74.10881239 -196.66581994 74.10827102 C-200.91113106 74.10566088 -205.15644223 74.10313348 -209.40175343 74.10064721 C-244.60118545 74.07992569 -279.80059058 74.04470977 -315 74 C-314.125 68.125 -314.125 68.125 -313 67 C-310.39142977 66.88016674 -307.80814798 66.82454548 -305.19824219 66.81054688 C-303.97113525 66.79810692 -303.97113525 66.79810692 -302.71923828 66.78541565 C-300.93443525 66.76796646 -299.14960869 66.75281314 -297.36476898 66.73963928 C-294.52984157 66.71862373 -291.69502856 66.69159004 -288.86016846 66.66296387 C-282.82349019 66.60314296 -276.78675661 66.55120163 -270.75 66.5 C-263.79399007 66.44054811 -256.83803364 66.3778073 -249.88211823 66.30812073 C-247.10785131 66.2818279 -244.33357844 66.26082971 -241.55926514 66.2401123 C-233.25141404 66.16579226 -225.03023169 65.94987189 -216.74822998 65.22161865 C-212.83366278 64.90594598 -208.94092544 64.85600859 -205.015625 64.8671875 C-204.23088806 64.86623077 -203.44615112 64.86527405 -202.63763428 64.86428833 C-200.99767984 64.8636164 -199.35772257 64.86540056 -197.71777344 64.86962891 C-195.26751431 64.87496188 -192.8174409 64.86966468 -190.3671875 64.86328125 C-188.74999961 64.86394277 -187.13281183 64.86522545 -185.515625 64.8671875 C-184.46160492 64.86415115 -184.46160492 64.86415115 -183.3862915 64.86105347 C-179.03825746 64.8801543 -174.72267867 65.07069072 -170.38379097 65.35873127 C-159.30244547 66.08814375 -148.25082841 66.16383782 -137.1484375 66.16796875 C-135.0754901 66.17119457 -133.00254291 66.17455955 -130.92959595 66.17805481 C-126.60816929 66.18399878 -122.28676248 66.18589964 -117.96533203 66.18530273 C-112.49641822 66.1852014 -107.02763504 66.19884587 -101.55875206 66.21607494 C-97.28239384 66.22733108 -93.00606586 66.22921782 -88.72969437 66.22869301 C-86.71678849 66.22985305 -84.70388129 66.23415973 -82.69099045 66.24202538 C-71.96039165 66.28003598 -61.33106706 66.00785483 -50.63525391 65.0949707 C-49.69946692 65.01529902 -48.76367992 64.93562735 -47.79953575 64.85354137 C-31.66997995 63.34287214 -17.42108557 59.13325487 -6 47 C-1.50539185 40.79874354 -0.84636324 35.20264511 -0.68359375 27.734375 C-0.6524221 26.54427826 -0.6524221 26.54427826 -0.62062073 25.33013916 C-0.55540027 22.80351156 -0.49636856 20.27678279 -0.4375 17.75 C-0.3942886 16.03384384 -0.35067347 14.31769778 -0.30664062 12.6015625 C-0.19974717 8.40114454 -0.09840271 4.20062511 0 0 Z " fill="#2D52FB" transform="translate(476,599)"/>
<path d="M0 0 C1.20269531 -0.02578125 2.40539062 -0.0515625 3.64453125 -0.078125 C10.85843312 0.58997617 13.74381515 3.91757819 18.1875 9.25 C19.239375 9.724375 20.29125 10.19875 21.375 10.6875 C24.1875 12.25 24.1875 12.25 25.35107422 15.39477539 C26.18454711 19.23638964 26.41649374 22.57222937 26.3828125 26.49609375 C26.3799826 27.15207047 26.37715271 27.80804718 26.37423706 28.48390198 C26.36315984 30.55196409 26.33808063 32.61957173 26.3125 34.6875 C26.30245402 36.10090515 26.29333102 37.51431717 26.28515625 38.92773438 C26.26326184 42.36863394 26.22882051 45.80927252 26.1875 49.25 C24.94355469 49.65992188 23.69960938 50.06984375 22.41796875 50.4921875 C18.79257133 51.85101296 16.82480148 53.20108967 14.5 56.375 C11.77635128 60.06510472 11.77635128 60.06510472 8.8984375 60.96875 C-0.89683493 61.98497423 -9.64476406 62.43220897 -17.8125 56.25 C-24.78298124 49.57550523 -26.8645315 41.36284497 -27.16381836 31.98901367 C-27.2536949 23.49151089 -26.98834489 15.45332412 -21.6875 8.4375 C-14.83343263 3.22244874 -8.68853809 0.11103563 0 0 Z " fill="#FDFDFE" transform="translate(406.8125,754.75)"/>
<path d="M0 0 C5.81885533 2.62594497 9.01268352 6.00450793 12.8125 11 C13.75307782 11.95531272 14.70954143 12.89549069 15.6875 13.8125 C19.69174428 17.93451617 19.02876412 22.50927175 18.95703125 27.94140625 C18.57740397 35.97514027 15.9477581 42.72007291 10.8125 49 C3.52720579 54.66504478 -3.94777235 57.95028844 -13.1875 57 C-19.15509241 55.7687347 -24.55684975 54.03697714 -29.1875 50 C-29.8125 47.5625 -29.8125 47.5625 -30.1875 45 C-30.80625 44.2575 -31.425 43.515 -32.0625 42.75 C-37.14894532 36.16754136 -37.8388785 28.74005435 -37.6796875 20.5859375 C-36.7570457 13.86383293 -33.60608494 6.37598459 -28.1875 2 C-27.445 2.020625 -26.7025 2.04125 -25.9375 2.0625 C-22.9488334 2.22941288 -22.9488334 2.22941288 -20 0 C-13.45049931 -3.9381696 -6.87117604 -2.53374616 0 0 Z " fill="#FDFEFE" transform="translate(690.1875,759)"/>
<path d="M0 0 C4.62 0 9.24 0 14 0 C13.67 1.32 13.34 2.64 13 4 C12.01 4.33 11.02 4.66 10 5 C8.81608777 7.37625345 8.81608777 7.37625345 8 10 C7.67 10.99 7.34 11.98 7 13 C6.91848557 15.98521715 6.89496235 18.94618524 6.91821289 21.9309082 C6.92127945 22.84520096 6.92434601 23.75949371 6.92750549 24.70149231 C6.9346657 26.69036542 6.94405837 28.67923144 6.95540047 30.6680851 C6.97279978 33.82683913 6.98309502 36.98554243 6.99131775 40.14433289 C7.01574765 49.12727674 7.05103375 58.11015311 7.09594727 67.09301758 C7.12292238 72.58836093 7.13984294 78.08366406 7.15081596 83.57906151 C7.15697897 85.66361147 7.16692443 87.74815414 7.18089485 89.8326664 C7.25557843 101.08807327 7.10237507 111.90145333 5 123 C5.94617188 122.67515625 6.89234375 122.3503125 7.8671875 122.015625 C12.61550543 120.6711788 17.21904855 120.70210786 22.125 120.75 C23.09896729 120.75386719 24.07293457 120.75773438 25.07641602 120.76171875 C38.07813683 120.90809103 51.04430108 121.96453549 64 123 C64 121.68 64 120.36 64 119 C70.27 119 76.54 119 83 119 C83.33 120.32 83.66 121.64 84 123 C86.64 123.66 89.28 124.32 92 125 C92 125.99 92 126.98 92 128 C61.64 128 31.28 128 0 128 C0 85.76 0 43.52 0 0 Z " fill="#4767F8" transform="translate(590,545)"/>
<path d="M0 0 C1.29808594 -0.01675781 2.59617187 -0.03351562 3.93359375 -0.05078125 C9.2507113 0.48150285 12.32914771 2.63553419 15.75 6.625 C20.07133249 11.95723546 21.03768711 17.02347314 20.875 23.78515625 C20.18400595 29.37357067 17.71360154 33.57229292 13.5 37.25 C8.97685134 40.42582778 5.67930068 40.47314886 0.25 40.5 C-1.04550781 40.51417969 -2.34101562 40.52835938 -3.67578125 40.54296875 C-10.07011334 40.15120801 -14.30652335 38.27066509 -18.95703125 34 C-23.06568978 29.31677972 -22.88382563 22.82119774 -22.74609375 16.890625 C-22.01581886 10.78959428 -17.65258122 7.35797776 -13.21875 3.609375 C-8.78264665 0.37958045 -5.53592995 0.01645965 0 0 Z " fill="#4C7EFC" transform="translate(784.4375,677.6875)"/>
<path d="M0 0 C0.98097656 -0.01224609 1.96195313 -0.02449219 2.97265625 -0.03710938 C8.02220198 -0.04733113 12.47937119 -0.04900628 17.125 2.1875 C20.62603621 7.6201424 21.25103519 12.85272121 21.2578125 19.1953125 C21.25990723 20.46068848 21.26200195 21.72606445 21.26416016 23.02978516 C21.26004755 24.45735865 21.2553031 25.88493043 21.25 27.3125 C21.2484491 28.04507019 21.24689819 28.77764038 21.24530029 29.53240967 C21.22959244 36.08431158 21.18033508 42.63582635 21.125 49.1875 C21.10856445 51.15009766 21.10856445 51.15009766 21.09179688 53.15234375 C21.01423107 62.16557892 20.91739323 71.17847139 20.80560303 80.19134521 C20.7675379 83.27778191 20.73383254 86.36422079 20.70367432 89.45074463 C20.66718908 93.13983822 20.62082935 96.82868195 20.56706238 100.51756287 C20.54849121 101.89979446 20.53330887 103.282076 20.5216217 104.66438293 C20.50486795 106.57014053 20.47471107 108.47576634 20.44384766 110.38134766 C20.43052399 111.45857086 20.41720032 112.53579407 20.4034729 113.6456604 C20.125 116.1875 20.125 116.1875 18.125 118.1875 C15.40014272 118.36267747 12.77840638 118.41899133 10.0546875 118.3828125 C9.25845978 118.3799826 8.46223206 118.37715271 7.64187622 118.37423706 C5.09443237 118.3630264 2.54733789 118.33792062 0 118.3125 C-1.72525535 118.30247133 -3.45051619 118.29334528 -5.17578125 118.28515625 C-9.40898914 118.26308422 -13.6419353 118.22854867 -17.875 118.1875 C-18.56397724 114.51759431 -18.98365375 111.17232757 -18.75390625 107.4453125 C-18.70556641 106.60742188 -18.65722656 105.76953125 -18.60742188 104.90625 C-18.55134766 104.0503125 -18.49527344 103.194375 -18.4375 102.3125 C-18.38529297 101.43335938 -18.33308594 100.55421875 -18.27929688 99.6484375 C-18.15052439 97.49442501 -18.01358537 95.34090341 -17.875 93.1875 C-18.535 93.1875 -19.195 93.1875 -19.875 93.1875 C-19.99078923 81.78291709 -20.07966238 70.37847373 -20.13406086 58.973423 C-20.16016798 53.67770901 -20.19558672 48.3823968 -20.25219727 43.08691406 C-20.30647676 37.97757767 -20.33641214 32.86862801 -20.34938622 27.75902557 C-20.35863337 25.80850891 -20.37669092 23.8580137 -20.40365028 21.90766144 C-20.43988688 19.17788258 -20.44494766 16.44970677 -20.44262695 13.71972656 C-20.46959152 12.50700073 -20.46959152 12.50700073 -20.49710083 11.26977539 C-20.46064602 7.31342723 -20.26846075 5.59346414 -17.46455383 2.70045471 C-11.89872042 -0.5514004 -6.29511561 0.00410373 0 0 Z M-14.875 6.1875 C-14.875 42.1575 -14.875 78.1275 -14.875 115.1875 C-4.975 115.1875 4.925 115.1875 15.125 115.1875 C15.125 79.2175 15.125 43.2475 15.125 6.1875 C5.225 6.1875 -4.675 6.1875 -14.875 6.1875 Z " fill="#ADC6F6" transform="translate(782.875,725.8125)"/>
<path d="M0 0 C0.99 0 1.98 0 3 0 C1.38275849 4.08207345 -1.54384801 6.80398063 -4.625 9.8125 C-5.12128906 10.30814453 -5.61757813 10.80378906 -6.12890625 11.31445312 C-8.94687066 14.10015077 -11.84360687 16.75528204 -14.84375 19.34375 C-19.37483524 23.27390561 -23.63313367 27.44935461 -27.875 31.6875 C-28.63296875 32.43322266 -29.3909375 33.17894531 -30.171875 33.94726562 C-30.89632813 34.66978516 -31.62078125 35.39230469 -32.3671875 36.13671875 C-33.01800293 36.78342529 -33.66881836 37.43013184 -34.33935547 38.09643555 C-38.57539696 42.95212733 -38.41841736 47.48679488 -38.3203125 53.73046875 C-37.68670582 60.19789302 -34.92401906 64.81363199 -30 69 C-27.30762013 69.6363651 -27.30762013 69.6363651 -24.359375 69.609375 C-22.75449219 69.65771484 -22.75449219 69.65771484 -21.1171875 69.70703125 C-20.00601562 69.72121094 -18.89484375 69.73539063 -17.75 69.75 C-16.62335938 69.77964844 -15.49671875 69.80929687 -14.3359375 69.83984375 C-11.55721979 69.91048912 -8.77933852 69.96321277 -6 70 C-4.96580588 100.00263164 -4.88245208 129.98183335 -5 160 C-5.33 160 -5.66 160 -6 160 C-6 150.43 -6 140.86 -6 131 C-6.99 131 -7.98 131 -9 131 C-9 129.35 -9 127.7 -9 126 C-9.66 126 -10.32 126 -11 126 C-11 130.62 -11 135.24 -11 140 C-11.33 140 -11.66 140 -12 140 C-12.60186906 124.85723068 -13.10651861 109.71816777 -13.1875 94.5625 C-13.20039063 93.40395508 -13.21328125 92.24541016 -13.2265625 91.05175781 C-13.23337377 85.30134197 -12.97333369 80.42081785 -11 75 C-11.87140625 74.96261719 -12.7428125 74.92523437 -13.640625 74.88671875 C-35.18264219 73.69771131 -35.18264219 73.69771131 -43.4765625 65.71875 C-48.48071937 60.07303455 -47.65243014 53.34755521 -47.22509766 46.20068359 C-46.38309086 37.96874293 -43.45618066 31.68359695 -37.0625 26.4375 C-34.30513636 24.47497818 -31.48974703 22.67872961 -28.625 20.875 C-25.76604521 19.08106527 -25.76604521 19.08106527 -23.9375 15.75 C-22.9784375 14.38875 -22.9784375 14.38875 -22 13 C-19.25 12.625 -19.25 12.625 -17 13 C-16.67 11.35 -16.34 9.7 -16 8 C-10.41 6.05 -10.41 6.05 -7.4375 5.6875 C-4.02675325 4.72549451 -2.43574044 2.49983888 0 0 Z " fill="#6C86F6" transform="translate(487,473)"/>
<path d="M0 0 C1.05952629 0.03096771 1.05952629 0.03096771 2.14045715 0.06256104 C2.86868179 0.06822083 3.59690643 0.07388062 4.34719849 0.07971191 C6.67088339 0.10208575 8.99302047 0.15227935 11.3162384 0.20318604 C12.89238799 0.22324995 14.46856178 0.24150091 16.04475403 0.25787354 C19.90667764 0.30195321 23.7674457 0.37098378 27.6287384 0.45318604 C28.72116567 4.92510565 28.83804366 9.34295827 28.92585754 13.92095947 C28.94551071 14.76245041 28.96516388 15.60394135 28.9854126 16.47093201 C29.04922297 19.25139703 29.10665712 22.03195354 29.16389465 24.81256104 C29.20697266 26.76009855 29.25038935 28.70762859 29.29412842 30.65515137 C29.38503627 34.74386284 29.47299731 38.83262329 29.55867004 42.92144775 C29.66756864 48.11557755 29.78188734 53.30956878 29.89824772 58.50353622 C29.9881979 62.53257889 30.07609128 66.56166433 30.16331291 70.59076691 C30.20476633 72.50257502 30.24662048 74.41437449 30.28891182 76.32616425 C30.40359663 81.55375081 30.50341814 86.78123174 30.58469009 92.00944519 C30.62864732 94.44813279 30.69311239 96.88572751 30.75883484 99.32391357 C30.78715828 100.84517969 30.81471453 102.36646035 30.84138489 103.88775635 C30.87255905 105.20689026 30.90373322 106.52602417 30.93585205 107.88513184 C30.6287384 111.45318604 30.6287384 111.45318604 27.6287384 117.45318604 C16.7387384 117.45318604 5.8487384 117.45318604 -5.3712616 117.45318604 C-5.7012616 116.13318604 -6.0312616 114.81318604 -6.3712616 113.45318604 C9.4687384 113.94818604 9.4687384 113.94818604 25.6287384 114.45318604 C25.6287384 78.48318604 25.6287384 42.51318604 25.6287384 5.45318604 C16.3887384 5.45318604 7.1487384 5.45318604 -2.3712616 5.45318604 C-2.34805847 8.90013916 -2.32485535 12.34709229 -2.3009491 15.89849854 C-2.28529843 19.28114454 -2.27318459 22.66378633 -2.26139832 26.04644775 C-2.25141452 28.37589356 -2.23782277 30.70532708 -2.22038269 33.034729 C-1.98570426 65.213283 -1.98570426 65.213283 -7.3712616 77.45318604 C-8.0312616 77.45318604 -8.6912616 77.45318604 -9.3712616 77.45318604 C-10.48866428 69.21448203 -10.38629761 61.13263494 -10.1368866 52.83599854 C-10.09765333 51.44740211 -10.05857328 50.05880135 -10.01963806 48.67019653 C-9.93680511 45.78064018 -9.84853525 42.89130733 -9.75700378 40.00201416 C-9.64080136 36.30368803 -9.54396676 32.60512176 -9.45177078 28.90612984 C-9.37744474 26.04734916 -9.29014166 23.18907202 -9.19919586 20.33077621 C-9.15787826 18.96658457 -9.12123122 17.60224294 -9.08940887 16.23779678 C-9.04366146 14.33542125 -8.97791966 12.43355835 -8.91130066 10.53179932 C-8.8794165 9.45165558 -8.84753235 8.37151184 -8.81468201 7.25863647 C-7.91492022 1.56598669 -5.66510455 -0.00259148 0 0 Z " fill="#A3BDF5" transform="translate(571.3712615966797,726.5468139648438)"/>
<path d="M0 0 C11.22 0 22.44 0 34 0 C35.31663394 9.87475453 36.29274582 18.90618633 36.25878906 28.74072266 C36.2622937 30.02235291 36.26579834 31.30398315 36.26940918 32.62445068 C36.27839665 36.08663751 36.27504892 39.54870295 36.26865101 43.01089144 C36.26353013 46.65467397 36.26829815 50.29844722 36.27142334 53.94223022 C36.27504084 60.0459782 36.27031772 66.14967743 36.26074219 72.25341797 C36.24981294 79.30130875 36.25342435 86.3490842 36.264395 93.3969723 C36.27347317 99.47374572 36.27475203 105.55048447 36.26951766 111.62726247 C36.26640713 115.24618319 36.26596433 118.86504964 36.27259064 122.48396683 C36.27944611 126.50712179 36.26994292 130.53007734 36.25878906 134.55322266 C36.26283752 135.74597809 36.26688599 136.93873352 36.27105713 138.16763306 C36.26259766 139.81142944 36.26259766 139.81142944 36.25396729 141.48843384 C36.25321323 142.43775599 36.25245918 143.38707813 36.25168228 144.36516762 C36 147 36 147 34 152 C22.12 152 10.24 152 -2 152 C-2.33 150.02 -2.66 148.04 -3 146 C-3.33 145.34 -3.66 144.68 -4 144 C-7.02934491 143.34227572 -7.02934491 143.34227572 -10 143 C-8.7156759 140.13496932 -7.58401213 137.84572295 -5 136 C-3.02 136 -1.04 136 1 136 C1 140.29 1 144.58 1 149 C10.9 149 20.8 149 31 149 C31 100.82 31 52.64 31 3 C20.77 3 10.54 3 0 3 C0 2.01 0 1.02 0 0 Z " fill="#B7CAF4" transform="translate(708,692)"/>
<path d="M0 0 C7.79658355 6.30362074 14.93194949 13.38703547 19.83203125 22.2109375 C20.97956465 24.12200519 20.97956465 24.12200519 22.91015625 25.796875 C38.04030457 41.7471622 46.32683205 78.75591681 46 100 C46.66829834 99.98428955 47.33659668 99.9685791 48.02514648 99.95239258 C67.14637218 99.56363642 83.75481852 101.30380229 102 107 C101.67 107.66 101.34 108.32 101 109 C100.16299561 108.94376465 99.32599121 108.8875293 98.46362305 108.82958984 C97.26261963 108.74918457 96.06161621 108.6687793 94.82421875 108.5859375 C94.15992355 108.54133392 93.49562836 108.49673035 92.811203 108.45077515 C88.86891949 108.18726907 84.92628337 107.93126153 80.98291016 107.68457031 C76.51143756 107.40442131 72.04109053 107.1096419 67.57104492 106.80761719 C65.71263655 106.68458953 63.85389373 106.5665251 61.99487305 106.453125 C59.27292212 106.28613123 56.55261598 106.10185867 53.83203125 105.9140625 C53.00290726 105.86706207 52.17378326 105.82006165 51.3195343 105.77163696 C43.79285999 105.21982843 43.79285999 105.21982843 41 102 C40.27392578 99.77368164 40.27392578 99.77368164 39.9453125 97.16015625 C39.74071411 95.70416016 39.74071411 95.70416016 39.53198242 94.21875 C39.39767822 93.1771875 39.26337402 92.135625 39.125 91.0625 C36.55452455 73.75108172 31.67815197 57.72248086 24 42 C23.49146484 40.95416748 23.49146484 40.95416748 22.97265625 39.88720703 C17.53289713 28.84579119 11.14269722 18.90201342 3.59179688 9.18847656 C3.13353516 8.58229492 2.67527344 7.97611328 2.203125 7.3515625 C1.78192383 6.80580566 1.36072266 6.26004883 0.92675781 5.69775391 C0 4 0 4 0 0 Z " fill="#DBE3F9" transform="translate(612,283)"/>
<path d="M0 0 C2.97 0.33 5.94 0.66 9 1 C9 2.65 9 4.3 9 6 C10.65 6.33 12.3 6.66 14 7 C14.103125 8.010625 14.20625 9.02125 14.3125 10.0625 C15.72716489 15.05367681 19.65669528 16.50608977 23.91015625 18.9765625 C29.35588365 22.54279107 33.53955754 27.28943927 38 32 C38.85722656 32.84949219 39.71445312 33.69898438 40.59765625 34.57421875 C46.96532355 41.00400963 51.14579851 47.40885352 54 56 C54.433125 57.2375 54.86625 58.475 55.3125 59.75 C56.84631453 67.00075958 53.73699292 72.89064641 50 79 C45.3408657 83.6591343 41.17576663 85.10672319 34.6875 85.125 C33.12477089 85.09306101 31.56210161 85.05459773 30 85 C29.61781233 83.34385343 29.28604898 81.67542976 29 80 C31.02198426 77.97801574 34.7218982 78.07842557 37.45703125 77.59765625 C40.78056592 76.81654902 43.12717426 76.15179852 45.234375 73.37109375 C46.3384468 69.95185097 46.28886738 66.61562607 46.25 63.0625 C46.25773438 62.35931641 46.26546875 61.65613281 46.2734375 60.93164062 C46.25125068 55.01330733 45.3475251 51.22482911 41.25024414 46.94140625 C40.10254701 45.80763363 38.94703817 44.68173164 37.78515625 43.5625 C36.86783974 42.65866577 36.86783974 42.65866577 35.93199158 41.73657227 C33.98252903 39.81705173 32.02346768 37.90776033 30.0625 36 C28.10597715 34.0914087 26.15182959 32.18060747 24.20372009 30.26342773 C22.99346822 29.0728262 21.77831583 27.8871795 20.55763245 26.70727539 C17.49290741 23.69696266 14.93420788 20.89666487 13 17 C13 16.34 13 15.68 13 15 C11.77887693 13.53355276 11.77887693 13.53355276 10.15625 12.03125 C9.56972656 11.46019531 8.98320313 10.88914062 8.37890625 10.30078125 C7.75886719 9.70652344 7.13882813 9.11226563 6.5 8.5 C5.27674054 7.32760372 4.05774964 6.15073207 2.84375 4.96875 C2.29912109 4.44732422 1.75449219 3.92589844 1.19335938 3.38867188 C0 2 0 2 0 0 Z " fill="#7187F3" transform="translate(575,463)"/>
<path d="M0 0 C2.475 0.99 2.475 0.99 5 2 C5.02917237 6.52081966 5.0468568 11.04161488 5.0625 15.5625 C5.07087891 16.83931641 5.07925781 18.11613281 5.08789062 19.43164062 C5.09111328 20.67236328 5.09433594 21.91308594 5.09765625 23.19140625 C5.10289307 24.32779541 5.10812988 25.46418457 5.11352539 26.63500977 C4.99486905 30.15208567 4.55780511 33.52771145 4 37 C4.94617188 36.67515625 5.89234375 36.3503125 6.8671875 36.015625 C11.61550543 34.6711788 16.21904855 34.70210786 21.125 34.75 C22.09896729 34.75386719 23.07293457 34.75773438 24.07641602 34.76171875 C37.07813683 34.90809103 50.04430108 35.96453549 63 37 C63 35.68 63 34.36 63 33 C69.27 33 75.54 33 82 33 C82.495 34.98 82.495 34.98 83 37 C85.64 37.66 88.28 38.32 91 39 C91 39.66 91 40.32 91 41 C60.97 41 30.94 41 0 41 C0 27.47 0 13.94 0 0 Z " fill="#2B52FB" transform="translate(591,631)"/>
<path d="M0 0 C3 1 3 1 4.6875 3.3125 C7.73928289 11.88655669 6.54173492 21.31220158 2.8828125 29.5 C-1.54428162 37.90397528 -8.19084136 41.89996169 -17 45 C-24.80794803 46.11542115 -32.84666581 44.04845932 -39.625 40.125 C-42 38 -42 38 -42.375 35.25 C-42.25125 34.5075 -42.1275 33.765 -42 33 C-41.12601563 33.23396484 -41.12601563 33.23396484 -40.234375 33.47265625 C-30.91180243 35.67291376 -23.35885204 32.22861969 -14.88134766 28.74755859 C-13.23772456 28.0944605 -11.56374008 27.51884392 -9.88671875 26.95703125 C-5.64872351 25.51925212 -3.4043876 24.45252898 -0.375 21.0625 C2.47229961 14.91340225 1.90933724 6.37998053 0 0 Z " fill="#E7EFFA" transform="translate(703,771)"/>
<path d="M0 0 C0.66 0 1.32 0 2 0 C2 1.65 2 3.3 2 5 C2.99 5 3.98 5 5 5 C5.09988492 9.92547891 5.17194055 14.85035096 5.21972656 19.77661133 C5.239675 21.44761442 5.26684401 23.11854924 5.30175781 24.78930664 C5.57742397 38.33343371 4.57984458 49.55530834 -5 60 C-10.0723087 65.2362842 -15.96114934 69.79533552 -23 72 C-25.80078125 71.625 -25.80078125 71.625 -28 71 C-27.54177532 67.53058454 -27.10868317 64.32604951 -26 61 C-23.8125 59.67578125 -23.8125 59.67578125 -21 58.3125 C-12.67259708 53.93763553 -5.98940332 48.64370719 -2 40 C-0.80407369 35.94809323 -0.77504779 31.93051441 -0.68359375 27.734375 C-0.66281265 26.94097717 -0.64203156 26.14757935 -0.62062073 25.33013916 C-0.55540027 22.80351156 -0.49636856 20.27678279 -0.4375 17.75 C-0.3942886 16.03384384 -0.35067347 14.31769778 -0.30664062 12.6015625 C-0.19974717 8.40114454 -0.09840271 4.20062511 0 0 Z " fill="#3859FA" transform="translate(476,599)"/>
<path d="M0 0 C0.99 0 1.98 0 3 0 C5.63223955 6.94994474 5.25906083 13.91159269 5.1875 21.25 C5.17913632 22.75309034 5.17117787 24.25618297 5.16357422 25.75927734 C5.13500987 30.35486826 5.08688073 34.95013548 5.03643799 39.54553223 C5.00299158 42.71638617 4.97318112 45.88725686 4.94470501 49.05815887 C4.86996667 57.37289594 4.78051913 65.68737137 4.67959595 74.00183105 C4.64228806 77.0891241 4.60901695 80.17642214 4.57894897 83.26379395 C4.54247919 86.95274804 4.49602319 90.64144947 4.44212532 94.33018875 C4.423512 95.71236666 4.40830296 97.09459487 4.39660454 98.4768486 C4.37985253 100.38261758 4.34970318 102.28825484 4.31884766 104.19384766 C4.30552399 105.27107086 4.29220032 106.34829407 4.2784729 107.4581604 C4 110 4 110 2 112 C-0.65291757 112.17510386 -3.19986174 112.23155483 -5.8515625 112.1953125 C-6.62559418 112.1924826 -7.39962585 112.18965271 -8.19711304 112.18673706 C-10.67323157 112.17552754 -13.1489905 112.15042203 -15.625 112.125 C-17.30207812 112.11497118 -18.97916189 112.10584516 -20.65625 112.09765625 C-24.77097223 112.07558574 -28.88542511 112.04105102 -33 112 C-32.34 111.01 -31.68 110.02 -31 109 C-20.77 109 -10.54 109 0 109 C0 73.03 0 37.06 0 0 Z " fill="#B5CCF5" transform="translate(799,732)"/>
<path d="M0 0 C7.92 0 15.84 0 24 0 C25.01218481 30.00404982 25.11755254 59.98065359 25 90 C24.67 90 24.34 90 24 90 C24 80.43 24 70.86 24 61 C23.01 61 22.02 61 21 61 C21 59.35 21 57.7 21 56 C20.34 56 19.68 56 19 56 C19 60.62 19 65.24 19 70 C18.67 70 18.34 70 18 70 C17.39813094 54.85723068 16.89348139 39.71816777 16.8125 24.5625 C16.79960937 23.40395508 16.78671875 22.24541016 16.7734375 21.05175781 C16.76662623 15.30134197 17.02666631 10.42081785 19 5 C17.57107422 4.90912109 17.57107422 4.90912109 16.11328125 4.81640625 C14.85902344 4.73261719 13.60476563 4.64882813 12.3125 4.5625 C11.07113281 4.48128906 9.82976562 4.40007813 8.55078125 4.31640625 C5.61819663 4.05508683 2.86558383 3.65201621 0 3 C0 2.01 0 1.02 0 0 Z " fill="#4F6EF3" transform="translate(457,543)"/>
<path d="M0 0 C1.24523437 0.01804687 2.49046875 0.03609375 3.7734375 0.0546875 C5.18496094 0.08949219 5.18496094 0.08949219 6.625 0.125 C6.625 0.785 6.625 1.445 6.625 2.125 C5.79097656 2.33253906 4.95695313 2.54007812 4.09765625 2.75390625 C-11.99287997 7.15899005 -22.35574978 19.17545807 -32.9296875 31.51171875 C-36.75229675 35.77857719 -41.70084901 39.45697255 -47.4375 40.5 C-49.71232055 41.05965168 -49.71232055 41.05965168 -51.8125 43.75 C-52.658125 44.53375 -53.50375 45.3175 -54.375 46.125 C-57.1875 45.9375 -57.1875 45.9375 -59.375 45.125 C-56.63150224 37.79764574 -56.63150224 37.79764574 -53.55078125 36.1484375 C-51.625 35.625 -51.625 35.625 -48.375 35.125 C-48.30152344 34.34511719 -48.22804688 33.56523437 -48.15234375 32.76171875 C-47.375 30.125 -47.375 30.125 -45.44140625 28.89453125 C-44.61511719 28.57871094 -43.78882813 28.26289063 -42.9375 27.9375 C-34.78390323 24.23343747 -29.38707103 17.52985157 -23.6875 10.8125 C-17.0522985 3.10258277 -10.32415642 -0.1947954 0 0 Z " fill="#7790F8" transform="translate(535.375,433.875)"/>
<path d="M0 0 C0.66 0.33 1.32 0.66 2 1 C2 8.92 2 16.84 2 25 C6.29 25 10.58 25 15 25 C15.66 47.44 16.32 69.88 17 93 C16.01 93 15.02 93 14 93 C10.81396323 83.44188968 10.84322015 73.62774469 11.12109375 63.64453125 C11.14470474 62.61688156 11.16831573 61.58923187 11.19264221 60.53044128 C11.26840171 57.2909552 11.35279603 54.05176326 11.4375 50.8125 C11.49080881 48.59832105 11.54354837 46.38412831 11.59570312 44.16992188 C11.72389604 38.77976639 11.85982622 33.38985668 12 28 C7.71 28 3.42 28 -1 28 C-1 26.02 -1 24.04 -1 22 C-2.32 22 -3.64 22 -5 22 C-5 19.36 -5 16.72 -5 14 C-3.68 14 -2.36 14 -1 14 C-1.01160156 13.07316406 -1.02320313 12.14632812 -1.03515625 11.19140625 C-1.04417969 9.99386719 -1.05320312 8.79632812 -1.0625 7.5625 C-1.07410156 6.36753906 -1.08570313 5.17257812 -1.09765625 3.94140625 C-1 1 -1 1 0 0 Z " fill="#E6F1F7" transform="translate(823,728)"/>
<path d="M0 0 C1.42892578 0.0009668 1.42892578 0.0009668 2.88671875 0.00195312 C3.87542969 0.01806641 4.86414063 0.03417969 5.8828125 0.05078125 C6.86378906 0.04755859 7.84476563 0.04433594 8.85546875 0.04101562 C13.89133738 0.07839387 18.36522684 0.17265722 23.0078125 2.36328125 C23.8828125 4.48828125 23.8828125 4.48828125 24.0078125 6.36328125 C23.3478125 6.36328125 22.6878125 6.36328125 22.0078125 6.36328125 C22.0078125 42.33328125 22.0078125 78.30328125 22.0078125 115.36328125 C21.6778125 115.36328125 21.3478125 115.36328125 21.0078125 115.36328125 C21.0078125 79.39328125 21.0078125 43.42328125 21.0078125 6.36328125 C11.1078125 6.36328125 1.2078125 6.36328125 -8.9921875 6.36328125 C-8.9921875 5.37328125 -8.9921875 4.38328125 -8.9921875 3.36328125 C-6.10874086 0.51945385 -3.98171007 -0.01376081 0 0 Z " fill="#9FBBF6" transform="translate(776.9921875,725.63671875)"/>
<path d="M0 0 C2.1171875 -0.375 2.1171875 -0.375 5 0 C7.23351834 1.94925237 9.15310669 3.81665679 11.125 6 C13.03304133 8.08149963 14.95612991 10.04347478 17 12 C17.99 12 18.98 12 20 12 C21.89091169 13.80779469 23.59774929 15.59929787 25.3125 17.5625 C25.80016846 18.1080957 26.28783691 18.65369141 26.7902832 19.21582031 C28.20338701 20.80218273 29.60414988 22.3984511 31 24 C31.67804687 24.77730469 32.35609375 25.55460937 33.0546875 26.35546875 C34.38084304 27.89418989 35.69262827 29.44528767 37 31 C34.26712886 32.42584581 33.01250051 33.07517827 30 33 C26.20543988 30.84749426 23.1652773 27.97967467 20 25 C19.34128906 24.41992188 18.68257812 23.83984375 18.00390625 23.2421875 C11.08314605 16.82501692 5.24413836 8.83073867 0 1 C0 0.67 0 0.34 0 0 Z " fill="#E3E8F4" transform="translate(553,449)"/>
<path d="M0 0 C2.75 0.8125 2.75 0.8125 5 2 C3.70472808 4.85009448 2.34021432 6.90891819 0.12670898 9.11621094 C-0.45051407 9.69651062 -1.02773712 10.2768103 -1.62245178 10.87469482 C-2.24333176 11.48838928 -2.86421173 12.10208374 -3.50390625 12.734375 C-4.14238998 13.37240051 -4.78087372 14.01042603 -5.43870544 14.66778564 C-6.78546576 16.01153063 -8.13464994 17.35285011 -9.48608398 18.69189453 C-11.56359387 20.75108423 -13.63292661 22.818228 -15.70117188 24.88671875 C-17.00994442 26.19057836 -18.31917341 27.49398001 -19.62890625 28.796875 C-20.56326256 29.72956207 -20.56326256 29.72956207 -21.51649475 30.68109131 C-25.88394041 35 -25.88394041 35 -27 35 C-27.84388123 29.514772 -25.84216457 26.75482783 -22.86279297 22.4362793 C-19.71198257 18.31544876 -16.08846456 14.73531277 -12.375 11.125 C-11.62476563 10.37992188 -10.87453125 9.63484375 -10.1015625 8.8671875 C-3.08208856 1.94728057 -3.08208856 1.94728057 0 0 Z " fill="#D9E2F8" transform="translate(337,245)"/>
<path d="M0 0 C1.65 0 3.3 0 5 0 C5.03867187 1.80984375 5.03867187 1.80984375 5.078125 3.65625 C5.13444886 5.27086738 5.1917952 6.88544933 5.25 8.5 C5.26417969 9.29148437 5.27835937 10.08296875 5.29296875 10.8984375 C5.57460539 17.7703714 7.30015076 23.37311966 12.3125 28.25 C13.1478125 29.11625 13.1478125 29.11625 14 30 C13.75 32.25 13.75 32.25 13 34 C6.23566637 31.51514275 1.04250869 28.06376303 -3 22 C-3.84406481 14.08552218 -2.98358758 7.3346528 0 0 Z " fill="#5E7BF4" transform="translate(443,512)"/>
<path d="M0 0 C1.32 0 2.64 0 4 0 C4.72804846 7.21307267 4.32247649 12.25772924 -0.171875 18.1171875 C-3.86778173 21.92365555 -7.42695779 23.7831293 -12.734375 24.23046875 C-15.17262607 24.24768804 -17.56902646 24.17933411 -20 24 C-20.38218767 22.34385343 -20.71395102 20.67542976 -21 19 C-18.97801574 16.97801574 -15.2781018 17.07842557 -12.54296875 16.59765625 C-9.19660291 15.81118317 -6.80519026 15.16831528 -4.8046875 12.265625 C-4.49789062 11.60046875 -4.19109375 10.9353125 -3.875 10.25 C-3.54757812 9.54359375 -3.22015625 8.8371875 -2.8828125 8.109375 C-1.76931291 5.44880076 -0.82862179 2.76207264 0 0 Z " fill="#5975F7" transform="translate(625,524)"/>
<path d="M0 0 C1.1446875 0.3403125 1.1446875 0.3403125 2.3125 0.6875 C1.90257812 1.38875 1.49265625 2.09 1.0703125 2.8125 C-6.36810426 15.90980798 -6.52497754 26.85643127 -4.6875 41.6875 C-10.05773138 37.42835098 -11.29375616 31.95830281 -12.08203125 25.41015625 C-12.54302703 15.70780321 -10.01504473 8.59977942 -4.30078125 0.79296875 C-2.6875 -0.3125 -2.6875 -0.3125 0 0 Z " fill="#D7E1F4" transform="translate(664.6875,761.3125)"/>
<path d="M0 0 C2.84744169 3.21884713 3.7777517 5.70319952 4 10 C3.0390625 13.359375 3.0390625 13.359375 1.625 16.75 C1.16351563 17.87921875 0.70203125 19.0084375 0.2265625 20.171875 C-0.47860819 21.79780996 -1.20741812 23.41483624 -2 25 C-3.65 25 -5.3 25 -7 25 C-6.979375 26.175625 -6.95875 27.35125 -6.9375 28.5625 C-6.93052739 32.47413467 -7.35749657 36.14497944 -8 40 C-8.99 40 -9.98 40 -11 40 C-11.91780865 36.39048355 -12.01766503 33.98584413 -10.99609375 30.41015625 C-10.75262207 29.5493042 -10.50915039 28.68845215 -10.25830078 27.80151367 C-9.98743652 26.89763916 -9.71657227 25.99376465 -9.4375 25.0625 C-9.03120361 23.67091675 -9.03120361 23.67091675 -8.61669922 22.2512207 C-6.30559618 14.55398215 -3.44111336 7.26050513 0 0 Z " fill="#A8B9F8" transform="translate(47,479)"/>
<path d="M0 0 C2.3125 0 2.3125 0 5 1 C8.98250288 8.43901481 8.34066196 16.29668383 8.1875 24.5 C8.17242613 25.90883986 8.1587425 27.31769532 8.14648438 28.7265625 C8.11129724 32.15144396 8.06206079 35.57551763 8 39 C5.69 39.66 3.38 40.32 1 41 C1.07001221 40.41299316 1.14002441 39.82598633 1.2121582 39.22119141 C1.94603245 32.59101715 2.18310174 26.04275866 2.1875 19.375 C2.19974609 18.39015625 2.21199219 17.4053125 2.22460938 16.390625 C2.23625787 10.56637598 1.67734629 5.58231452 0 0 Z " fill="#AEC5F3" transform="translate(425,765)"/>
<path d="M0 0 C0.74765625 0.22300781 1.4953125 0.44601562 2.265625 0.67578125 C0.79573094 5.27347312 -1.84812622 8.48522415 -4.984375 12.05078125 C-5.47655518 12.62078857 -5.96873535 13.1907959 -6.47583008 13.77807617 C-7.44879475 14.9040338 -8.42438618 16.02772796 -9.40283203 17.14892578 C-11.08989268 19.08344673 -12.75636402 21.03520003 -14.421875 22.98828125 C-15.5665625 24.31859375 -15.5665625 24.31859375 -16.734375 25.67578125 C-18.92697786 22.38687696 -19.57226825 20.60072964 -19.734375 16.67578125 C-17.31847458 12.83527124 -13.97678862 9.83378288 -10.734375 6.67578125 C-10.00605469 5.9384375 -9.27773438 5.20109375 -8.52734375 4.44140625 C-3.45333097 -0.40946639 -3.45333097 -0.40946639 0 0 Z " fill="#7899F8" transform="translate(370.734375,734.32421875)"/>
<path d="M0 0 C0.66 0.33 1.32 0.66 2 1 C2 8.92 2 16.84 2 25 C6.29 25 10.58 25 15 25 C15 25.33 15 25.66 15 26 C14.00097656 25.98839844 13.00195312 25.97679687 11.97265625 25.96484375 C10.68230469 25.95582031 9.39195312 25.94679688 8.0625 25.9375 C6.77472656 25.92589844 5.48695313 25.91429687 4.16015625 25.90234375 C1.13701597 25.63467451 1.13701597 25.63467451 0 27 C4.29 27 8.58 27 13 27 C13 40.86 13 54.72 13 69 C12.67 69 12.34 69 12 69 C12 55.47 12 41.94 12 28 C7.71 28 3.42 28 -1 28 C-1 26.02 -1 24.04 -1 22 C-2.32 22 -3.64 22 -5 22 C-5 19.36 -5 16.72 -5 14 C-3.68 14 -2.36 14 -1 14 C-1.01160156 13.07316406 -1.02320313 12.14632812 -1.03515625 11.19140625 C-1.04417969 9.99386719 -1.05320312 8.79632812 -1.0625 7.5625 C-1.07410156 6.36753906 -1.08570313 5.17257812 -1.09765625 3.94140625 C-1 1 -1 1 0 0 Z " fill="#C9DAF8" transform="translate(823,728)"/>
<path d="M0 0 C17.94886656 1.45118496 17.94886656 1.45118496 23.0625 5.3125 C25.0127912 8.01774263 25.71784846 9.70823203 26 13 C21.75697882 14.41434039 19.1095486 12.58380743 15.25 10.8125 C14.5590625 10.50763672 13.868125 10.20277344 13.15625 9.88867188 C8.60179439 7.84687175 4.29759693 5.53693222 0 3 C0 2.01 0 1.02 0 0 Z " fill="#8AA3F1" transform="translate(97,655)"/>
<path d="M0 0 C1.87852322 1.58797829 2.88932445 2.56501933 3.50390625 4.98046875 C3.65298667 10.59583133 2.47466634 13.88795892 -1.1328125 18.203125 C-4.08940696 21.04838327 -7.38414763 23.09112362 -11 25 C-11.66 24.01 -12.32 23.02 -13 22 C-4.738041 6.07061503 -4.738041 6.07061503 0 0 Z " fill="#97ADF6" transform="translate(61,455)"/>
<path d="M0 0 C0.99 0.66 1.98 1.32 3 2 C1.49701413 6.87331783 -1.27890725 9.91912104 -4.6875 13.5625 C-5.19216797 14.12646484 -5.69683594 14.69042969 -6.21679688 15.27148438 C-9.7853354 19.12875421 -13.23876781 21.73740719 -18 24 C-18.66 23.67 -19.32 23.34 -20 23 C-19.54625 22.278125 -19.0925 21.55625 -18.625 20.8125 C-16.95535647 18.15681568 -16.95535647 18.15681568 -16.25 15.625 C-13.00321576 8.80675309 -6.01303332 4.26378726 0 0 Z " fill="#C0CDF8" transform="translate(85,431)"/>
<path d="M0 0 C0 4.29 0 8.58 0 13 C10.56 13 21.12 13 32 13 C32 13.66 32 14.32 32 15 C20.78 15 9.56 15 -2 15 C-2 13.02 -2 11.04 -2 9 C-2.99 9.33 -3.98 9.66 -5 10 C-5 9.34 -5 8.68 -5 8 C-7.97 7.505 -7.97 7.505 -11 7 C-8.22850043 0.81742403 -7.20166187 0 0 0 Z " fill="#CFDDF7" transform="translate(709,828)"/>
<path d="M0 0 C0.66 0 1.32 0 2 0 C3.19407538 4.91221253 2.71841527 7.80410855 0.91015625 12.4921875 C0.45576172 13.69101562 0.00136719 14.88984375 -0.46679688 16.125 C-0.95672246 17.37512106 -1.44696076 18.62511961 -1.9375 19.875 C-2.42513546 21.14793746 -2.91147723 22.4213713 -3.39648438 23.6953125 C-4.58502494 26.80199278 -5.78651533 29.90299678 -7 33 C-7.66 33 -8.32 33 -9 33 C-10.9005422 23.87739743 -7.6561305 16.70358349 -3.875 8.5 C-3.50246094 7.67757813 -3.12992188 6.85515625 -2.74609375 6.0078125 C-1.83666707 4.00241007 -0.92125066 1.99999101 0 0 Z " fill="#D1DBF8" transform="translate(160,354)"/>
<path d="M0 0 C2.890625 3.7578125 2.890625 3.7578125 3.875 5.9375 C5.00529062 8.24042922 5.00529062 8.24042922 7.5 10.5 C11.55100005 14.55100005 12.25466143 17.57147525 12.625 23.25 C12.69976562 24.32765625 12.77453125 25.4053125 12.8515625 26.515625 C12.92503906 27.74539063 12.92503906 27.74539063 13 29 C6.38976518 24.64691853 2.84801559 18.28926889 0 11 C-0.50457157 7.23580681 -0.47505664 3.76275021 0 0 Z " fill="#365AFA" transform="translate(45,582)"/>
<path d="M0 0 C5.19190305 0.48674091 8.81620531 3.12669353 13 6 C13.93199219 6.57427734 13.93199219 6.57427734 14.8828125 7.16015625 C16.5625 8.3125 16.5625 8.3125 19 11 C19.20304948 13.94147356 18.6923966 16.08204291 18 19 C13.47865782 15.28245198 9.22584239 11.35952636 5.0625 7.25 C4.31746216 6.5242981 4.31746216 6.5242981 3.55737305 5.78393555 C2.33152671 4.56151636 1.16065173 3.28448257 0 2 C0 1.34 0 0.68 0 0 Z " fill="#6E86F4" transform="translate(553,443)"/>
<path d="M0 0 C0.556875 0.226875 1.11375 0.45375 1.6875 0.6875 C2.0175 2.6675 2.3475 4.6475 2.6875 6.6875 C-1.87577794 10.22036034 -5.80883208 10.01124517 -11.3125 9.6875 C-11.6425 9.0275 -11.9725 8.3675 -12.3125 7.6875 C-4.46923575 -0.60395078 -4.46923575 -0.60395078 0 0 Z " fill="#3C60FD" transform="translate(745.3125,642.3125)"/>
<path d="M0 0 C6.75 0.875 6.75 0.875 9 2 C9 3.65 9 5.3 9 7 C5.0186217 8.3271261 1.14954773 8.06915913 -3 8 C-1.125 2.25 -1.125 2.25 0 0 Z " fill="#395CFD" transform="translate(721,653)"/>
<path d="M0 0 C4.95 0 9.9 0 15 0 C15 0.66 15 1.32 15 2 C15.66 2.33 16.32 2.66 17 3 C10.88019467 4.40454548 5.28260706 5.23268915 -1 5 C-0.67 3.35 -0.34 1.7 0 0 Z " fill="#DDE2F5" transform="translate(683,670)"/>
<path d="M0 0 C0.66 0.33 1.32 0.66 2 1 C2.09038099 6.15171623 1.84681133 10.91913204 1 16 C0.01 16 -0.98 16 -2 16 C-3.13314263 11.89517207 -2.78328091 9.24049263 -1.5625 5.1875 C-1.27503906 4.21167969 -0.98757812 3.23585938 -0.69140625 2.23046875 C-0.46324219 1.49441406 -0.23507813 0.75835937 0 0 Z " fill="#9DB0F9" transform="translate(38,503)"/>
<path d="M0 0 C3.29078593 2.79716804 5.06305458 6.19528578 7 10 C6.67 10.66 6.34 11.32 6 12 C3.69 8.37 1.38 4.74 -1 1 C-0.67 0.67 -0.34 0.34 0 0 Z " fill="#9AAEFC" transform="translate(627,296)"/>
</svg>
